  0
SECTION
  2
HEADER
  9
$ACADVER
  1
AC1014
  9
$EXTMIN
 10
70.16401489310567
 20
112.369642808922
 30
0.0
  9
$EXTMAX
 10
277.0834797641999
 20
227.1366601424358
 30
0.0
  9
$HANDSEED
  5
56
  9
$MEASUREMENT
 70
1
  0
ENDSEC
  0
SECTION
  2
TABLES
  0
TABLE
  2
VPORT
  5
8
330
0
100
AcDbSymbolTable
 70
     4
  0
VPORT
  5
2E
330
8
100
AcDbSymbolTableRecord
100
AcDbViewportTableRecord
  2
*ACTIVE
 70
     0
 10
0.0
 20
0.0
 11
1.0
 21
1.0
 12
209.9999999999999
 22
148.4999999999999
 13
0.0
 23
0.0
 14
10.0
 24
10.0
 15
10.0
 25
10.0
 16
0.0
 26
0.0
 36
1.0
 17
0.0
 27
0.0
 37
0.0
 40
340.9950045922664
 41
1.239944521497919
 42
50.0
 43
0.0
 44
0.0
 50
0.0
 51
0.0
 71
     0
 72
   100
 73
     1
 74
     3
 75
     0
 76
     0
 77
     0
 78
     0
  0
ENDTAB
  0
TABLE
  2
LTYPE
  5
5
330
0
100
AcDbSymbolTable
 70
     1
  0
LTYPE
  5
14
330
5
100
AcDbSymbolTableRecord
100
AcDbLinetypeTableRecord
  2
BYBLOCK
 70
     0
  3

 72
    65
 73
     0
 40
0.0
  0
LTYPE
  5
15
330
5
100
AcDbSymbolTableRecord
100
AcDbLinetypeTableRecord
  2
BYLAYER
 70
     0
  3

 72
    65
 73
     0
 40
0.0
  0
LTYPE
  5
16
330
5
100
AcDbSymbolTableRecord
100
AcDbLinetypeTableRecord
  2
CONTINUOUS
 70
     0
  3
Solid line
 72
    65
 73
     0
 40
0.0
  0
ENDTAB
  0
TABLE
  2
LAYER
  5
2
330
0
100
AcDbSymbolTable
 70
4
  0
LAYER
  5
10
330
2
100
AcDbSymbolTableRecord
100
AcDbLayerTableRecord
  2
0
 70
     0
 62
     7
  6
CONTINUOUS
  0
LAYER
  5
11e
100
AcDbSymbolTableRecord
100
AcDbLayerTableRecord
  2
C00-00-00-BLACK
 70
0
 62
7
  6
CONTINUOUS
  0
LAYER
  5
11f
100
AcDbSymbolTableRecord
100
AcDbLayerTableRecord
  2
CFF-FF-FF-WHITE
 70
0
 62
7
  6
CONTINUOUS
  0
ENDTAB
  0
TABLE
  2
STYLE
  5
3
330
0
100
AcDbSymbolTable
 70
     1
  0
STYLE
  5
11
330
3
100
AcDbSymbolTableRecord
100
AcDbTextStyleTableRecord
  2
STANDARD
 70
     0
 40
0.0
 41
1.0
 50
0.0
 71
     0
 42
2.5
  3
txt
  4

  0
ENDTAB
  0
TABLE
  2
VIEW
  5
6
330
0
100
AcDbSymbolTable
 70
     0
  0
ENDTAB
  0
TABLE
  2
UCS
  5
7
330
0
100
AcDbSymbolTable
 70
     0
  0
ENDTAB
  0
TABLE
  2
APPID
  5
9
330
0
100
AcDbSymbolTable
 70
     2
  0
APPID
  5
12
330
9
100
AcDbSymbolTableRecord
100
AcDbRegAppTableRecord
  2
ACAD
 70
     0
  0
APPID
  5
2B
330
9
100
AcDbSymbolTableRecord
100
AcDbRegAppTableRecord
  2
URBANX
 70
     0
  0
ENDTAB
  0
TABLE
  2
DIMSTYLE
  5
A
330
0
100
AcDbSymbolTable
 70
     1
  0
DIMSTYLE
105
27
330
A
100
AcDbSymbolTableRecord
100
AcDbDimStyleTableRecord
  2
ISO-25
 70
     0
  3

  4

  5

  6

  7

 40
1.0
 41
2.5
 42
0.625
 43
3.75
 44
1.25
 45
0.0
 46
0.0
 47
0.0
 48
0.0
140
2.5
141
2.5
142
0.0
143
0.03937007874016
144
1.0
145
0.0
146
1.0
147
0.625
 71
     0
 72
     0
 73
     0
 74
     0
 75
     0
 76
     0
 77
     1
 78
     8
170
     0
171
     3
172
     1
173
     0
174
     0
175
     0
176
     0
177
     0
178
     0
270
     2
271
     2
272
     2
273
     2
274
     3
340
11
275
     0
280
     0
281
     0
282
     0
283
     0
284
     8
285
     0
286
     0
287
     3
288
     0
  0
ENDTAB
  0
TABLE
  2
BLOCK_RECORD
  5
1
330
0
100
AcDbSymbolTable
 70
     1
  0
BLOCK_RECORD
  5
1F
102
{ACAD_XDICTIONARY
360
52
102
}
330
1
100
AcDbSymbolTableRecord
100
AcDbBlockTableRecord
  2
*MODEL_SPACE
  0
BLOCK_RECORD
  5
1B
102
{ACAD_XDICTIONARY
360
50
102
}
330
1
100
AcDbSymbolTableRecord
100
AcDbBlockTableRecord
  2
*PAPER_SPACE
  0
ENDTAB
  0
ENDSEC
  0
SECTION
  2
BLOCKS
  0
BLOCK
  5
20
330
1F
100
AcDbEntity
  8
0
100
AcDbBlockBegin
  2
*MODEL_SPACE
 70
     0
 10
0.0
 20
0.0
 30
0.0
  3
*MODEL_SPACE
  1

  0
ENDBLK
  5
21
330
1F
100
AcDbEntity
  8
0
100
AcDbBlockEnd
  0
BLOCK
  5
1C
330
1B
100
AcDbEntity
 67
     1
  8
0
100
AcDbBlockBegin
  2
*PAPER_SPACE
  1

  0
ENDBLK
  5
1D
330
1B
100
AcDbEntity
 67
     1
  8
0
100
AcDbBlockEnd
  0
ENDSEC
  0
SECTION
  2
ENTITIES
  0
LINE
  5
ff
100
AcDbEntity
  8
C00-00-00-BLACK
100
AcDbLine
 10
25.675
 20
9.525
 30
0.0
 11
25.675
 21
9.525
 31
0.0
  0
LWPOLYLINE
  5
100
100
AcDbEntity
  8
C00-00-00-BLACK
100
AcDbPolyline
 90
31
 70
 0
 10
25.675
 20
9.525
 30
0.0
 10
25.6749
 20
9.52773
 30
0.0
 10
25.6747
 20
9.53042
 30
0.0
 10
25.6743
 20
9.53307
 30
0.0
 10
25.6738
 20
9.53567
 30
0.0
 10
25.6732
 20
9.53823
 30
0.0
 10
25.6724
 20
9.54074
 30
0.0
 10
25.6715
 20
9.54318
 30
0.0
 10
25.6705
 20
9.54557
 30
0.0
 10
25.6694
 20
9.54789
 30
0.0
 10
25.6681
 20
9.55015
 30
0.0
 10
25.6668
 20
9.55233
 30
0.0
 10
25.6653
 20
9.55444
 30
0.0
 10
25.6638
 20
9.55647
 30
0.0
 10
25.6621
 20
9.55841
 30
0.0
 10
25.6603
 20
9.56027
 30
0.0
 10
25.6585
 20
9.56203
 30
0.0
 10
25.6565
 20
9.5637
 30
0.0
 10
25.6545
 20
9.56527
 30
0.0
 10
25.6524
 20
9.56674
 30
0.0
 10
25.6502
 20
9.5681
 30
0.0
 10
25.648
 20
9.56935
 30
0.0
 10
25.6456
 20
9.57048
 30
0.0
 10
25.6433
 20
9.5715
 30
0.0
 10
25.6408
 20
9.57239
 30
0.0
 10
25.6383
 20
9.57316
 30
0.0
 10
25.6357
 20
9.57379
 30
0.0
 10
25.6331
 20
9.5743
 30
0.0
 10
25.6305
 20
9.57466
 30
0.0
 10
25.6278
 20
9.57488
 30
0.0
 10
25.6251
 20
9.57495
 30
0.0
  0
LWPOLYLINE
  5
101
100
AcDbEntity
  8
C00-00-00-BLACK
100
AcDbPolyline
 90
31
 70
 0
 10
25.6251
 20
9.57495
 30
0.0
 10
25.6223
 20
9.57488
 30
0.0
 10
25.6196
 20
9.57466
 30
0.0
 10
25.617
 20
9.5743
 30
0.0
 10
25.6144
 20
9.57379
 30
0.0
 10
25.6118
 20
9.57316
 30
0.0
 10
25.6093
 20
9.57239
 30
0.0
 10
25.6069
 20
9.5715
 30
0.0
 10
25.6045
 20
9.57049
 30
0.0
 10
25.6021
 20
9.56935
 30
0.0
 10
25.5999
 20
9.5681
 30
0.0
 10
25.5977
 20
9.56674
 30
0.0
 10
25.5956
 20
9.56527
 30
0.0
 10
25.5935
 20
9.5637
 30
0.0
 10
25.5916
 20
9.56203
 30
0.0
 10
25.5897
 20
9.56027
 30
0.0
 10
25.5879
 20
9.55841
 30
0.0
 10
25.5863
 20
9.55647
 30
0.0
 10
25.5847
 20
9.55444
 30
0.0
 10
25.5832
 20
9.55233
 30
0.0
 10
25.5818
 20
9.55015
 30
0.0
 10
25.5806
 20
9.54789
 30
0.0
 10
25.5794
 20
9.54557
 30
0.0
 10
25.5784
 20
9.54318
 30
0.0
 10
25.5775
 20
9.54073
 30
0.0
 10
25.5767
 20
9.53823
 30
0.0
 10
25.5761
 20
9.53567
 30
0.0
 10
25.5756
 20
9.53307
 30
0.0
 10
25.5752
 20
9.53042
 30
0.0
 10
25.575
 20
9.52773
 30
0.0
 10
25.5749
 20
9.525
 30
0.0
  0
LWPOLYLINE
  5
102
100
AcDbEntity
  8
C00-00-00-BLACK
100
AcDbPolyline
 90
31
 70
 0
 10
25.5749
 20
9.525
 30
0.0
 10
25.575
 20
9.52227
 30
0.0
 10
25.5752
 20
9.51958
 30
0.0
 10
25.5756
 20
9.51693
 30
0.0
 10
25.5761
 20
9.51433
 30
0.0
 10
25.5767
 20
9.51177
 30
0.0
 10
25.5775
 20
9.50927
 30
0.0
 10
25.5784
 20
9.50682
 30
0.0
 10
25.5794
 20
9.50443
 30
0.0
 10
25.5806
 20
9.50211
 30
0.0
 10
25.5818
 20
9.49985
 30
0.0
 10
25.5832
 20
9.49767
 30
0.0
 10
25.5847
 20
9.49556
 30
0.0
 10
25.5863
 20
9.49353
 30
0.0
 10
25.5879
 20
9.49159
 30
0.0
 10
25.5897
 20
9.48973
 30
0.0
 10
25.5916
 20
9.48797
 30
0.0
 10
25.5935
 20
9.4863
 30
0.0
 10
25.5956
 20
9.48472
 30
0.0
 10
25.5977
 20
9.48326
 30
0.0
 10
25.5999
 20
9.4819
 30
0.0
 10
25.6021
 20
9.48065
 30
0.0
 10
25.6045
 20
9.47951
 30
0.0
 10
25.6069
 20
9.4785
 30
0.0
 10
25.6093
 20
9.47761
 30
0.0
 10
25.6118
 20
9.47684
 30
0.0
 10
25.6144
 20
9.47621
 30
0.0
 10
25.617
 20
9.4757
 30
0.0
 10
25.6197
 20
9.47534
 30
0.0
 10
25.6223
 20
9.47512
 30
0.0
 10
25.6251
 20
9.47505
 30
0.0
  0
LWPOLYLINE
  5
103
100
AcDbEntity
  8
C00-00-00-BLACK
100
AcDbPolyline
 90
31
 70
 0
 10
25.6251
 20
9.47505
 30
0.0
 10
25.6278
 20
9.47512
 30
0.0
 10
25.6305
 20
9.47534
 30
0.0
 10
25.6331
 20
9.4757
 30
0.0
 10
25.6357
 20
9.47621
 30
0.0
 10
25.6383
 20
9.47684
 30
0.0
 10
25.6408
 20
9.47761
 30
0.0
 10
25.6432
 20
9.4785
 30
0.0
 10
25.6456
 20
9.47952
 30
0.0
 10
25.648
 20
9.48065
 30
0.0
 10
25.6502
 20
9.4819
 30
0.0
 10
25.6524
 20
9.48326
 30
0.0
 10
25.6545
 20
9.48473
 30
0.0
 10
25.6565
 20
9.4863
 30
0.0
 10
25.6585
 20
9.48797
 30
0.0
 10
25.6603
 20
9.48973
 30
0.0
 10
25.6621
 20
9.49159
 30
0.0
 10
25.6638
 20
9.49353
 30
0.0
 10
25.6653
 20
9.49556
 30
0.0
 10
25.6668
 20
9.49767
 30
0.0
 10
25.6681
 20
9.49985
 30
0.0
 10
25.6694
 20
9.50211
 30
0.0
 10
25.6705
 20
9.50443
 30
0.0
 10
25.6715
 20
9.50682
 30
0.0
 10
25.6724
 20
9.50927
 30
0.0
 10
25.6732
 20
9.51177
 30
0.0
 10
25.6738
 20
9.51433
 30
0.0
 10
25.6743
 20
9.51693
 30
0.0
 10
25.6747
 20
9.51958
 30
0.0
 10
25.6749
 20
9.52227
 30
0.0
 10
25.675
 20
9.525
 30
0.0
  0
LINE
  5
104
100
AcDbEntity
  8
C00-00-00-BLACK
100
AcDbLine
 10
0
 20
0.999959
 30
0.0
 11
0
 21
19.05
 31
0.0
  0
LINE
  5
105
100
AcDbEntity
  8
C00-00-00-BLACK
100
AcDbLine
 10
0
 20
19.05
 30
0.0
 11
0
 21
22.0501
 31
0.0
  0
LWPOLYLINE
  5
106
100
AcDbEntity
  8
C00-00-00-BLACK
100
AcDbPolyline
 90
31
 70
 0
 10
0
 20
22.0501
 30
0.0
 10
0.000592416
 20
22.072
 30
0.0
 10
0.00234926
 20
22.0936
 30
0.0
 10
0.00523991
 20
22.1149
 30
0.0
 10
0.00923377
 20
22.1358
 30
0.0
 10
0.0143002
 20
22.1563
 30
0.0
 10
0.0204086
 20
22.1764
 30
0.0
 10
0.0275284
 20
22.196
 30
0.0
 10
0.035629
 20
22.2152
 30
0.0
 10
0.0446797
 20
22.2338
 30
0.0
 10
0.05465
 20
22.2519
 30
0.0
 10
0.0655092
 20
22.2694
 30
0.0
 10
0.0772267
 20
22.2862
 30
0.0
 10
0.0897719
 20
22.3024
 30
0.0
 10
0.103114
 20
22.318
 30
0.0
 10
0.117223
 20
22.3328
 30
0.0
 10
0.132068
 20
22.347
 30
0.0
 10
0.147618
 20
22.3603
 30
0.0
 10
0.163842
 20
22.3728
 30
0.0
 10
0.180711
 20
22.3846
 30
0.0
 10
0.198193
 20
22.3954
 30
0.0
 10
0.216258
 20
22.4054
 30
0.0
 10
0.234875
 20
22.4144
 30
0.0
 10
0.254014
 20
22.4225
 30
0.0
 10
0.273643
 20
22.4297
 30
0.0
 10
0.293733
 20
22.4358
 30
0.0
 10
0.314253
 20
22.4408
 30
0.0
 10
0.335172
 20
22.4448
 30
0.0
 10
0.35646
 20
22.4477
 30
0.0
 10
0.378085
 20
22.4495
 30
0.0
 10
0.400018
 20
22.4501
 30
0.0
  0
LWPOLYLINE
  5
107
100
AcDbEntity
  8
C00-00-00-BLACK
100
AcDbPolyline
 90
31
 70
 0
 10
0.400018
 20
22.4501
 30
0.0
 10
0.421951
 20
22.4495
 30
0.0
 10
0.443576
 20
22.4477
 30
0.0
 10
0.464864
 20
22.4448
 30
0.0
 10
0.485783
 20
22.4408
 30
0.0
 10
0.506302
 20
22.4358
 30
0.0
 10
0.526392
 20
22.4297
 30
0.0
 10
0.546022
 20
22.4225
 30
0.0
 10
0.56516
 20
22.4144
 30
0.0
 10
0.583777
 20
22.4054
 30
0.0
 10
0.601842
 20
22.3954
 30
0.0
 10
0.619324
 20
22.3846
 30
0.0
 10
0.636192
 20
22.3728
 30
0.0
 10
0.652417
 20
22.3603
 30
0.0
 10
0.667967
 20
22.3469
 30
0.0
 10
0.682811
 20
22.3328
 30
0.0
 10
0.69692
 20
22.318
 30
0.0
 10
0.710262
 20
22.3024
 30
0.0
 10
0.722807
 20
22.2862
 30
0.0
 10
0.734524
 20
22.2694
 30
0.0
 10
0.745384
 20
22.2519
 30
0.0
 10
0.755354
 20
22.2338
 30
0.0
 10
0.764404
 20
22.2152
 30
0.0
 10
0.772505
 20
22.196
 30
0.0
 10
0.779625
 20
22.1764
 30
0.0
 10
0.785733
 20
22.1563
 30
0.0
 10
0.790799
 20
22.1358
 30
0.0
 10
0.794793
 20
22.1149
 30
0.0
 10
0.797684
 20
22.0936
 30
0.0
 10
0.799441
 20
22.072
 30
0.0
 10
0.800033
 20
22.0501
 30
0.0
  0
LINE
  5
108
100
AcDbEntity
  8
C00-00-00-BLACK
100
AcDbLine
 10
0.800033
 20
22.0501
 30
0.0
 11
0.800033
 21
19.6499
 31
0.0
  0
LWPOLYLINE
  5
109
100
AcDbEntity
  8
C00-00-00-BLACK
100
AcDbPolyline
 90
31
 70
 0
 10
0.800033
 20
19.6499
 30
0.0
 10
0.800921
 20
19.617
 30
0.0
 10
0.803555
 20
19.5846
 30
0.0
 10
0.807888
 20
19.5526
 30
0.0
 10
0.813876
 20
19.5213
 30
0.0
 10
0.821471
 20
19.4905
 30
0.0
 10
0.83063
 20
19.4604
 30
0.0
 10
0.841304
 20
19.4309
 30
0.0
 10
0.853449
 20
19.4022
 30
0.0
 10
0.867019
 20
19.3743
 30
0.0
 10
0.881968
 20
19.3472
 30
0.0
 10
0.898251
 20
19.321
 30
0.0
 10
0.91582
 20
19.2957
 30
0.0
 10
0.934631
 20
19.2713
 30
0.0
 10
0.954638
 20
19.248
 30
0.0
 10
0.975795
 20
19.2258
 30
0.0
 10
0.998056
 20
19.2046
 30
0.0
 10
1.02138
 20
19.1846
 30
0.0
 10
1.04571
 20
19.1658
 30
0.0
 10
1.07101
 20
19.1482
 30
0.0
 10
1.09722
 20
19.1319
 30
0.0
 10
1.12432
 20
19.117
 30
0.0
 10
1.15224
 20
19.1034
 30
0.0
 10
1.18095
 20
19.0913
 30
0.0
 10
1.21039
 20
19.0806
 30
0.0
 10
1.24053
 20
19.0714
 30
0.0
 10
1.27131
 20
19.0638
 30
0.0
 10
1.30269
 20
19.0579
 30
0.0
 10
1.33463
 20
19.0535
 30
0.0
 10
1.36707
 20
19.0509
 30
0.0
 10
1.39998
 20
19.05
 30
0.0
  0
LWPOLYLINE
  5
10a
100
AcDbEntity
  8
C00-00-00-BLACK
100
AcDbPolyline
 90
31
 70
 0
 10
1.39998
 20
19.05
 30
0.0
 10
1.43288
 20
19.0509
 30
0.0
 10
1.46533
 20
19.0535
 30
0.0
 10
1.49726
 20
19.0579
 30
0.0
 10
1.52864
 20
19.0638
 30
0.0
 10
1.55943
 20
19.0714
 30
0.0
 10
1.58956
 20
19.0806
 30
0.0
 10
1.619
 20
19.0913
 30
0.0
 10
1.64771
 20
19.1034
 30
0.0
 10
1.67563
 20
19.117
 30
0.0
 10
1.70273
 20
19.1319
 30
0.0
 10
1.72895
 20
19.1482
 30
0.0
 10
1.75425
 20
19.1658
 30
0.0
 10
1.77858
 20
19.1846
 30
0.0
 10
1.8019
 20
19.2046
 30
0.0
 10
1.82416
 20
19.2258
 30
0.0
 10
1.84531
 20
19.248
 30
0.0
 10
1.86532
 20
19.2713
 30
0.0
 10
1.88413
 20
19.2957
 30
0.0
 10
1.9017
 20
19.321
 30
0.0
 10
1.91798
 20
19.3472
 30
0.0
 10
1.93293
 20
19.3743
 30
0.0
 10
1.9465
 20
19.4022
 30
0.0
 10
1.95865
 20
19.4309
 30
0.0
 10
1.96932
 20
19.4604
 30
0.0
 10
1.97848
 20
19.4905
 30
0.0
 10
1.98608
 20
19.5213
 30
0.0
 10
1.99206
 20
19.5526
 30
0.0
 10
1.9964
 20
19.5846
 30
0.0
 10
1.99903
 20
19.617
 30
0.0
 10
1.99992
 20
19.6499
 30
0.0
  0
LINE
  5
10b
100
AcDbEntity
  8
C00-00-00-BLACK
100
AcDbLine
 10
1.99992
 20
19.6499
 30
0.0
 11
1.99992
 21
22.0501
 31
0.0
  0
LWPOLYLINE
  5
10c
100
AcDbEntity
  8
C00-00-00-BLACK
100
AcDbPolyline
 90
31
 70
 0
 10
1.99992
 20
22.0501
 30
0.0
 10
2.00051
 20
22.072
 30
0.0
 10
2.00227
 20
22.0936
 30
0.0
 10
2.00516
 20
22.1149
 30
0.0
 10
2.00915
 20
22.1358
 30
0.0
 10
2.01422
 20
22.1563
 30
0.0
 10
2.02033
 20
22.1764
 30
0.0
 10
2.02745
 20
22.196
 30
0.0
 10
2.03555
 20
22.2152
 30
0.0
 10
2.0446
 20
22.2338
 30
0.0
 10
2.05457
 20
22.2519
 30
0.0
 10
2.06543
 20
22.2694
 30
0.0
 10
2.07715
 20
22.2862
 30
0.0
 10
2.08969
 20
22.3024
 30
0.0
 10
2.10303
 20
22.318
 30
0.0
 10
2.11714
 20
22.3328
 30
0.0
 10
2.13199
 20
22.347
 30
0.0
 10
2.14754
 20
22.3603
 30
0.0
 10
2.16376
 20
22.3728
 30
0.0
 10
2.18063
 20
22.3846
 30
0.0
 10
2.19811
 20
22.3954
 30
0.0
 10
2.21618
 20
22.4054
 30
0.0
 10
2.23479
 20
22.4144
 30
0.0
 10
2.25393
 20
22.4225
 30
0.0
 10
2.27356
 20
22.4297
 30
0.0
 10
2.29365
 20
22.4358
 30
0.0
 10
2.31417
 20
22.4408
 30
0.0
 10
2.33509
 20
22.4448
 30
0.0
 10
2.35638
 20
22.4477
 30
0.0
 10
2.378
 20
22.4495
 30
0.0
 10
2.39994
 20
22.4501
 30
0.0
  0
LWPOLYLINE
  5
10d
100
AcDbEntity
  8
C00-00-00-BLACK
100
AcDbPolyline
 90
31
 70
 0
 10
2.39994
 20
22.4501
 30
0.0
 10
2.42187
 20
22.4495
 30
0.0
 10
2.44349
 20
22.4477
 30
0.0
 10
2.46478
 20
22.4448
 30
0.0
 10
2.4857
 20
22.4408
 30
0.0
 10
2.50622
 20
22.4358
 30
0.0
 10
2.52631
 20
22.4297
 30
0.0
 10
2.54594
 20
22.4225
 30
0.0
 10
2.56508
 20
22.4144
 30
0.0
 10
2.5837
 20
22.4054
 30
0.0
 10
2.60176
 20
22.3954
 30
0.0
 10
2.61924
 20
22.3846
 30
0.0
 10
2.63611
 20
22.3728
 30
0.0
 10
2.65234
 20
22.3603
 30
0.0
 10
2.66789
 20
22.3469
 30
0.0
 10
2.68273
 20
22.3328
 30
0.0
 10
2.69684
 20
22.318
 30
0.0
 10
2.71018
 20
22.3024
 30
0.0
 10
2.72273
 20
22.2862
 30
0.0
 10
2.73444
 20
22.2694
 30
0.0
 10
2.7453
 20
22.2519
 30
0.0
 10
2.75528
 20
22.2338
 30
0.0
 10
2.76433
 20
22.2152
 30
0.0
 10
2.77243
 20
22.196
 30
0.0
 10
2.77955
 20
22.1764
 30
0.0
 10
2.78565
 20
22.1563
 30
0.0
 10
2.79072
 20
22.1358
 30
0.0
 10
2.79471
 20
22.1149
 30
0.0
 10
2.79761
 20
22.0936
 30
0.0
 10
2.79936
 20
22.072
 30
0.0
 10
2.79995
 20
22.0501
 30
0.0
  0
LINE
  5
10e
100
AcDbEntity
  8
C00-00-00-BLACK
100
AcDbLine
 10
2.79995
 20
22.0501
 30
0.0
 11
2.79995
 21
19.6499
 31
0.0
  0
LWPOLYLINE
  5
10f
100
AcDbEntity
  8
C00-00-00-BLACK
100
AcDbPolyline
 90
31
 70
 0
 10
2.79995
 20
19.6499
 30
0.0
 10
2.80084
 20
19.617
 30
0.0
 10
2.80348
 20
19.5846
 30
0.0
 10
2.80781
 20
19.5526
 30
0.0
 10
2.81381
 20
19.5213
 30
0.0
 10
2.82141
 20
19.4905
 30
0.0
 10
2.83057
 20
19.4604
 30
0.0
 10
2.84125
 20
19.4309
 30
0.0
 10
2.8534
 20
19.4022
 30
0.0
 10
2.86698
 20
19.3743
 30
0.0
 10
2.88193
 20
19.3472
 30
0.0
 10
2.89822
 20
19.321
 30
0.0
 10
2.9158
 20
19.2957
 30
0.0
 10
2.93462
 20
19.2713
 30
0.0
 10
2.95463
 20
19.248
 30
0.0
 10
2.9758
 20
19.2258
 30
0.0
 10
2.99807
 20
19.2046
 30
0.0
 10
3.02139
 20
19.1846
 30
0.0
 10
3.04573
 20
19.1658
 30
0.0
 10
3.07104
 20
19.1482
 30
0.0
 10
3.09727
 20
19.1319
 30
0.0
 10
3.12437
 20
19.117
 30
0.0
 10
3.1523
 20
19.1034
 30
0.0
 10
3.18101
 20
19.0913
 30
0.0
 10
3.21046
 20
19.0806
 30
0.0
 10
3.2406
 20
19.0714
 30
0.0
 10
3.27139
 20
19.0638
 30
0.0
 10
3.30277
 20
19.0579
 30
0.0
 10
3.33471
 20
19.0535
 30
0.0
 10
3.36715
 20
19.0509
 30
0.0
 10
3.40006
 20
19.05
 30
0.0
  0
LWPOLYLINE
  5
110
100
AcDbEntity
  8
C00-00-00-BLACK
100
AcDbPolyline
 90
31
 70
 0
 10
3.40006
 20
19.05
 30
0.0
 10
3.43297
 20
19.0509
 30
0.0
 10
3.46541
 20
19.0535
 30
0.0
 10
3.49735
 20
19.0579
 30
0.0
 10
3.52873
 20
19.0638
 30
0.0
 10
3.55951
 20
19.0714
 30
0.0
 10
3.58965
 20
19.0806
 30
0.0
 10
3.61909
 20
19.0913
 30
0.0
 10
3.6478
 20
19.1034
 30
0.0
 10
3.67572
 20
19.117
 30
0.0
 10
3.70282
 20
19.1319
 30
0.0
 10
3.72904
 20
19.1482
 30
0.0
 10
3.75434
 20
19.1658
 30
0.0
 10
3.77867
 20
19.1846
 30
0.0
 10
3.80199
 20
19.2046
 30
0.0
 10
3.82425
 20
19.2258
 30
0.0
 10
3.8454
 20
19.248
 30
0.0
 10
3.86541
 20
19.2713
 30
0.0
 10
3.88422
 20
19.2957
 30
0.0
 10
3.90179
 20
19.321
 30
0.0
 10
3.91807
 20
19.3472
 30
0.0
 10
3.93302
 20
19.3743
 30
0.0
 10
3.94659
 20
19.4022
 30
0.0
 10
3.95874
 20
19.4309
 30
0.0
 10
3.96941
 20
19.4604
 30
0.0
 10
3.97857
 20
19.4905
 30
0.0
 10
3.98616
 20
19.5213
 30
0.0
 10
3.99215
 20
19.5526
 30
0.0
 10
3.99648
 20
19.5846
 30
0.0
 10
3.99912
 20
19.617
 30
0.0
 10
4.00001
 20
19.6499
 30
0.0
  0
LINE
  5
111
100
AcDbEntity
  8
C00-00-00-BLACK
100
AcDbLine
 10
4.00001
 20
19.6499
 30
0.0
 11
4.00001
 21
22.0501
 31
0.0
  0
LWPOLYLINE
  5
112
100
AcDbEntity
  8
C00-00-00-BLACK
100
AcDbPolyline
 90
31
 70
 0
 10
4.00001
 20
22.0501
 30
0.0
 10
4.0006
 20
22.072
 30
0.0
 10
4.00236
 20
22.0936
 30
0.0
 10
4.00525
 20
22.1149
 30
0.0
 10
4.00924
 20
22.1358
 30
0.0
 10
4.01431
 20
22.1563
 30
0.0
 10
4.02041
 20
22.1764
 30
0.0
 10
4.02753
 20
22.196
 30
0.0
 10
4.03563
 20
22.2152
 30
0.0
 10
4.04468
 20
22.2338
 30
0.0
 10
4.05465
 20
22.2519
 30
0.0
 10
4.06551
 20
22.2694
 30
0.0
 10
4.07723
 20
22.2862
 30
0.0
 10
4.08977
 20
22.3024
 30
0.0
 10
4.10312
 20
22.318
 30
0.0
 10
4.11723
 20
22.3328
 30
0.0
 10
4.13207
 20
22.347
 30
0.0
 10
4.14762
 20
22.3603
 30
0.0
 10
4.16384
 20
22.3728
 30
0.0
 10
4.18071
 20
22.3846
 30
0.0
 10
4.19819
 20
22.3954
 30
0.0
 10
4.21626
 20
22.4054
 30
0.0
 10
4.23488
 20
22.4144
 30
0.0
 10
4.25401
 20
22.4225
 30
0.0
 10
4.27364
 20
22.4297
 30
0.0
 10
4.29373
 20
22.4358
 30
0.0
 10
4.31425
 20
22.4408
 30
0.0
 10
4.33517
 20
22.4448
 30
0.0
 10
4.35646
 20
22.4477
 30
0.0
 10
4.37809
 20
22.4495
 30
0.0
 10
4.40002
 20
22.4501
 30
0.0
  0
LWPOLYLINE
  5
113
100
AcDbEntity
  8
C00-00-00-BLACK
100
AcDbPolyline
 90
31
 70
 0
 10
4.40002
 20
22.4501
 30
0.0
 10
4.42195
 20
22.4495
 30
0.0
 10
4.44358
 20
22.4477
 30
0.0
 10
4.46487
 20
22.4448
 30
0.0
 10
4.48579
 20
22.4408
 30
0.0
 10
4.50631
 20
22.4358
 30
0.0
 10
4.5264
 20
22.4297
 30
0.0
 10
4.54603
 20
22.4225
 30
0.0
 10
4.56517
 20
22.4144
 30
0.0
 10
4.58378
 20
22.4054
 30
0.0
 10
4.60185
 20
22.3954
 30
0.0
 10
4.61933
 20
22.3846
 30
0.0
 10
4.6362
 20
22.3728
 30
0.0
 10
4.65242
 20
22.3603
 30
0.0
 10
4.66797
 20
22.3469
 30
0.0
 10
4.68282
 20
22.3328
 30
0.0
 10
4.69692
 20
22.318
 30
0.0
 10
4.71027
 20
22.3024
 30
0.0
 10
4.72281
 20
22.2862
 30
0.0
 10
4.73453
 20
22.2694
 30
0.0
 10
4.74539
 20
22.2519
 30
0.0
 10
4.75536
 20
22.2338
 30
0.0
 10
4.76441
 20
22.2152
 30
0.0
 10
4.77251
 20
22.196
 30
0.0
 10
4.77963
 20
22.1764
 30
0.0
 10
4.78574
 20
22.1563
 30
0.0
 10
4.7908
 20
22.1358
 30
0.0
 10
4.7948
 20
22.1149
 30
0.0
 10
4.79769
 20
22.0936
 30
0.0
 10
4.79944
 20
22.072
 30
0.0
 10
4.80004
 20
22.0501
 30
0.0
  0
LINE
  5
114
100
AcDbEntity
  8
C00-00-00-BLACK
100
AcDbLine
 10
4.80004
 20
22.0501
 30
0.0
 11
4.80004
 21
19.6499
 31
0.0
  0
LWPOLYLINE
  5
115
100
AcDbEntity
  8
C00-00-00-BLACK
100
AcDbPolyline
 90
31
 70
 0
 10
4.80004
 20
19.6499
 30
0.0
 10
4.80092
 20
19.617
 30
0.0
 10
4.80356
 20
19.5846
 30
0.0
 10
4.80789
 20
19.5526
 30
0.0
 10
4.81388
 20
19.5213
 30
0.0
 10
4.82147
 20
19.4905
 30
0.0
 10
4.83063
 20
19.4604
 30
0.0
 10
4.8413
 20
19.4309
 30
0.0
 10
4.85345
 20
19.4022
 30
0.0
 10
4.86702
 20
19.3743
 30
0.0
 10
4.88197
 20
19.3472
 30
0.0
 10
4.89825
 20
19.321
 30
0.0
 10
4.91582
 20
19.2957
 30
0.0
 10
4.93463
 20
19.2713
 30
0.0
 10
4.95464
 20
19.248
 30
0.0
 10
4.97579
 20
19.2258
 30
0.0
 10
4.99805
 20
19.2046
 30
0.0
 10
5.02137
 20
19.1846
 30
0.0
 10
5.0457
 20
19.1658
 30
0.0
 10
5.071
 20
19.1482
 30
0.0
 10
5.09722
 20
19.1319
 30
0.0
 10
5.12431
 20
19.117
 30
0.0
 10
5.15224
 20
19.1034
 30
0.0
 10
5.18094
 20
19.0913
 30
0.0
 10
5.21039
 20
19.0806
 30
0.0
 10
5.24052
 20
19.0714
 30
0.0
 10
5.2713
 20
19.0638
 30
0.0
 10
5.30268
 20
19.0579
 30
0.0
 10
5.33462
 20
19.0535
 30
0.0
 10
5.36706
 20
19.0509
 30
0.0
 10
5.39997
 20
19.05
 30
0.0
  0
LINE
  5
116
100
AcDbEntity
  8
C00-00-00-BLACK
100
AcDbLine
 10
5.39997
 20
19.05
 30
0.0
 11
19.05
 21
19.05
 31
0.0
  0
LWPOLYLINE
  5
117
100
AcDbEntity
  8
C00-00-00-BLACK
100
AcDbPolyline
 90
31
 70
 0
 10
19.05
 20
19.05
 30
0.0
 10
19.2338
 20
19.0261
 30
0.0
 10
19.3874
 20
18.9567
 30
0.0
 10
19.5143
 20
18.8449
 30
0.0
 10
19.6182
 20
18.6941
 30
0.0
 10
19.7023
 20
18.5074
 30
0.0
 10
19.7703
 20
18.2882
 30
0.0
 10
19.8255
 20
18.0397
 30
0.0
 10
19.8716
 20
17.7651
 30
0.0
 10
19.912
 20
17.4678
 30
0.0
 10
19.9502
 20
17.1509
 30
0.0
 10
19.9896
 20
16.8178
 30
0.0
 10
20.0338
 20
16.4716
 30
0.0
 10
20.0863
 20
16.1157
 30
0.0
 10
20.1505
 20
15.7532
 30
0.0
 10
20.23
 20
15.3875
 30
0.0
 10
20.3282
 20
15.0218
 30
0.0
 10
20.4486
 20
14.6594
 30
0.0
 10
20.5948
 20
14.3034
 30
0.0
 10
20.7701
 20
13.9572
 30
0.0
 10
20.9782
 20
13.6241
 30
0.0
 10
21.2224
 20
13.3072
 30
0.0
 10
21.5063
 20
13.0099
 30
0.0
 10
21.8334
 20
12.7353
 30
0.0
 10
22.2072
 20
12.4868
 30
0.0
 10
22.6311
 20
12.2676
 30
0.0
 10
23.1086
 20
12.081
 30
0.0
 10
23.6433
 20
11.9301
 30
0.0
 10
24.2386
 20
11.8184
 30
0.0
 10
24.898
 20
11.7489
 30
0.0
 10
25.6251
 20
11.725
 30
0.0
  0
LINE
  5
118
100
AcDbEntity
  8
C00-00-00-BLACK
100
AcDbLine
 10
25.6251
 20
11.725
 30
0.0
 11
25.6251
 21
11.725
 31
0.0
  0
LWPOLYLINE
  5
119
100
AcDbEntity
  8
C00-00-00-BLACK
100
AcDbPolyline
 90
31
 70
 0
 10
25.6251
 20
11.725
 30
0.0
 10
25.7458
 20
11.7218
 30
0.0
 10
25.8648
 20
11.7121
 30
0.0
 10
25.9819
 20
11.6962
 30
0.0
 10
26.097
 20
11.6743
 30
0.0
 10
26.2099
 20
11.6464
 30
0.0
 10
26.3204
 20
11.6129
 30
0.0
 10
26.4284
 20
11.5737
 30
0.0
 10
26.5337
 20
11.5292
 30
0.0
 10
26.6361
 20
11.4794
 30
0.0
 10
26.7354
 20
11.4246
 30
0.0
 10
26.8316
 20
11.3649
 30
0.0
 10
26.9243
 20
11.3005
 30
0.0
 10
27.0135
 20
11.2315
 30
0.0
 10
27.099
 20
11.1582
 30
0.0
 10
27.1807
 20
11.0806
 30
0.0
 10
27.2582
 20
10.999
 30
0.0
 10
27.3316
 20
10.9135
 30
0.0
 10
27.4006
 20
10.8243
 30
0.0
 10
27.465
 20
10.7315
 30
0.0
 10
27.5247
 20
10.6353
 30
0.0
 10
27.5795
 20
10.536
 30
0.0
 10
27.6292
 20
10.4336
 30
0.0
 10
27.6738
 20
10.3283
 30
0.0
 10
27.7129
 20
10.2203
 30
0.0
 10
27.7465
 20
10.1098
 30
0.0
 10
27.7743
 20
9.99692
 30
0.0
 10
27.7963
 20
9.88183
 30
0.0
 10
27.8122
 20
9.7647
 30
0.0
 10
27.8218
 20
9.6457
 30
0.0
 10
27.8251
 20
9.525
 30
0.0
  0
LWPOLYLINE
  5
11a
100
AcDbEntity
  8
C00-00-00-BLACK
100
AcDbPolyline
 90
31
 70
 0
 10
27.8251
 20
9.525
 30
0.0
 10
27.8218
 20
9.4043
 30
0.0
 10
27.8122
 20
9.2853
 30
0.0
 10
27.7963
 20
9.16817
 30
0.0
 10
27.7743
 20
9.05308
 30
0.0
 10
27.7465
 20
8.94019
 30
0.0
 10
27.7129
 20
8.82967
 30
0.0
 10
27.6738
 20
8.72169
 30
0.0
 10
27.6292
 20
8.61642
 30
0.0
 10
27.5795
 20
8.51402
 30
0.0
 10
27.5247
 20
8.41466
 30
0.0
 10
27.465
 20
8.31852
 30
0.0
 10
27.4006
 20
8.22575
 30
0.0
 10
27.3316
 20
8.13653
 30
0.0
 10
27.2582
 20
8.05103
 30
0.0
 10
27.1807
 20
7.9694
 30
0.0
 10
27.099
 20
7.89183
 30
0.0
 10
27.0135
 20
7.81848
 30
0.0
 10
26.9243
 20
7.7495
 30
0.0
 10
26.8316
 20
7.68509
 30
0.0
 10
26.7354
 20
7.62539
 30
0.0
 10
26.6361
 20
7.57058
 30
0.0
 10
26.5337
 20
7.52083
 30
0.0
 10
26.4284
 20
7.47631
 30
0.0
 10
26.3204
 20
7.43717
 30
0.0
 10
26.2099
 20
7.4036
 30
0.0
 10
26.097
 20
7.37575
 30
0.0
 10
25.9819
 20
7.3538
 30
0.0
 10
25.8648
 20
7.33792
 30
0.0
 10
25.7458
 20
7.32826
 30
0.0
 10
25.6251
 20
7.32501
 30
0.0
  0
LWPOLYLINE
  5
11b
100
AcDbEntity
  8
C00-00-00-BLACK
100
AcDbPolyline
 90
31
 70
 0
 10
25.6251
 20
7.32501
 30
0.0
 10
24.898
 20
7.30113
 30
0.0
 10
24.2386
 20
7.23168
 30
0.0
 10
23.6433
 20
7.11991
 30
0.0
 10
23.1086
 20
6.96907
 30
0.0
 10
22.6311
 20
6.78241
 30
0.0
 10
22.2072
 20
6.56321
 30
0.0
 10
21.8334
 20
6.3147
 30
0.0
 10
21.5063
 20
6.04015
 30
0.0
 10
21.2224
 20
5.74281
 30
0.0
 10
20.9782
 20
5.42593
 30
0.0
 10
20.7701
 20
5.09278
 30
0.0
 10
20.5948
 20
4.7466
 30
0.0
 10
20.4486
 20
4.39066
 30
0.0
 10
20.3282
 20
4.02821
 30
0.0
 10
20.23
 20
3.6625
 30
0.0
 10
20.1505
 20
3.2968
 30
0.0
 10
20.0863
 20
2.93434
 30
0.0
 10
20.0338
 20
2.5784
 30
0.0
 10
19.9896
 20
2.23223
 30
0.0
 10
19.9502
 20
1.89908
 30
0.0
 10
19.912
 20
1.5822
 30
0.0
 10
19.8716
 20
1.28486
 30
0.0
 10
19.8255
 20
1.01031
 30
0.0
 10
19.7703
 20
0.761801
 30
0.0
 10
19.7023
 20
0.542593
 30
0.0
 10
19.6182
 20
0.355941
 30
0.0
 10
19.5143
 20
0.2051
 30
0.0
 10
19.3874
 20
0.093326
 30
0.0
 10
19.2338
 20
0.0238741
 30
0.0
 10
19.05
 20
0
 30
0.0
  0
LINE
  5
11c
100
AcDbEntity
  8
C00-00-00-BLACK
100
AcDbLine
 10
19.05
 20
0
 30
0.0
 11
0.999959
 21
0
 31
0.0
  0
LWPOLYLINE
  5
11d
100
AcDbEntity
  8
C00-00-00-BLACK
100
AcDbPolyline
 90
31
 70
 0
 10
0.999959
 20
0
 30
0.0
 10
0.945105
 20
0.00147998
 30
0.0
 10
0.891022
 20
0.00586902
 30
0.0
 10
0.837788
 20
0.0130908
 30
0.0
 10
0.785478
 20
0.023069
 30
0.0
 10
0.734169
 20
0.0357273
 30
0.0
 10
0.683938
 20
0.0509893
 30
0.0
 10
0.63486
 20
0.0687788
 30
0.0
 10
0.587012
 20
0.0890194
 30
0.0
 10
0.54047
 20
0.111635
 30
0.0
 10
0.49531
 20
0.136549
 30
0.0
 10
0.45161
 20
0.163685
 30
0.0
 10
0.409445
 20
0.192966
 30
0.0
 10
0.368891
 20
0.224318
 30
0.0
 10
0.330025
 20
0.257662
 30
0.0
 10
0.292923
 20
0.292923
 30
0.0
 10
0.257662
 20
0.330025
 30
0.0
 10
0.224318
 20
0.368891
 30
0.0
 10
0.192966
 20
0.409445
 30
0.0
 10
0.163685
 20
0.45161
 30
0.0
 10
0.136549
 20
0.49531
 30
0.0
 10
0.111635
 20
0.54047
 30
0.0
 10
0.0890194
 20
0.587012
 30
0.0
 10
0.0687788
 20
0.63486
 30
0.0
 10
0.0509893
 20
0.683938
 30
0.0
 10
0.0357273
 20
0.734169
 30
0.0
 10
0.023069
 20
0.785478
 30
0.0
 10
0.0130908
 20
0.837788
 30
0.0
 10
0.00586902
 20
0.891022
 30
0.0
 10
0.00147998
 20
0.945105
 30
0.0
 10
0
 20
0.999959
 30
0.0
  0
ENDSEC
  0
SECTION
  2
OBJECTS
  0
DICTIONARY
  5
C
330
0
100
AcDbDictionary
  3
ACAD_GROUP
350
D
  3
ACAD_LAYOUT
350
1A
  3
ACAD_MLINESTYLE
350
17
  3
ACAD_PLOTSETTINGS
350
19
  3
ACAD_PLOTSTYLENAME
350
E
  3
ACDBHEADERROUNDTRIPXREC
350
2F
  0
DICTIONARY
  5
52
330
1F
100
AcDbDictionary
280
     1
  3
ACAD_LAYOUTSELFREF
360
53
  0
DICTIONARY
  5
50
330
1B
100
AcDbDictionary
280
     1
  3
ACAD_LAYOUTSELFREF
360
51
  0
DICTIONARY
  5
D
102
{ACAD_REACTORS
330
C
102
}
330
C
100
AcDbDictionary
  0
DICTIONARY
  5
1A
102
{ACAD_REACTORS
330
C
102
}
330
C
100
AcDbDictionary
  0
DICTIONARY
  5
17
102
{ACAD_REACTORS
330
C
102
}
330
C
100
AcDbDictionary
  3
STANDARD
350
18
  0
DICTIONARY
  5
19
102
{ACAD_REACTORS
330
C
102
}
330
C
100
AcDbDictionary
  0
ACDBDICTIONARYWDFLT
  5
E
102
{ACAD_REACTORS
330
C
102
}
330
C
100
AcDbDictionary
281
     1
  3
Normal
350
F
100
AcDbDictionaryWithDefault
340
F
  0
DICTIONARY
  5
2F
102
{ACAD_REACTORS
330
C
102
}
330
C
100
AcDbDictionary
  3
CEPSNTYPE
350
39
  3
DIMSTYLEDATA
350
3D
  3
FINGERPRINTGUID
350
3A
  3
HYPERLINKBASE
350
32
  3
INSUNITS
350
38
  3
LAYOUTDICT
350
34
  3
LWETCUNION
350
37
  3
PLOTSETDICT
350
35
  3
PLOTSTYLNAMDICT
350
36
  3
PSVPSCALE
350
3C
  3
PUCSBASE
350
40
  3
PUCSORGBACK
350
46
  3
PUCSORGBOTTOM
350
42
  3
PUCSORGFRONT
350
45
  3
PUCSORGLEFT
350
43
  3
PUCSORGRIGHT
350
44
  3
PUCSORGTOP
350
41
  3
PUCSORTHOREF
350
3E
  3
PUCSORTHOVIEW
350
3F
  3
STYLESHEET
350
33
  3
TSTACKALIGN
350
30
  3
TSTACKSIZE
350
31
  3
UCSBASE
350
49
  3
UCSORGBACK
350
4F
  3
UCSORGBOTTOM
350
4B
  3
UCSORGFRONT
350
4E
  3
UCSORGLEFT
350
4C
  3
UCSORGRIGHT
350
4D
  3
UCSORGTOP
350
4A
  3
UCSORTHOREF
350
47
  3
UCSORTHOVIEW
350
48
  3
VERSIONGUID
350
3B
  0
XRECORD
  5
53
102
{ACAD_REACTORS
330
52
102
}
330
52
100
AcDbXrecord
340
1F
  0
XRECORD
  5
51
102
{ACAD_REACTORS
330
50
102
}
330
50
100
AcDbXrecord
340
1B
  0
MLINESTYLE
  5
18
102
{ACAD_REACTORS
330
17
102
}
330
17
100
AcDbMlineStyle
  2
STANDARD
 70
     0
  3

 62
   256
 51
90.0
 52
90.0
 71
     2
 49
0.5
 62
   256
  6
BYLAYER
 49
-0.5
 62
   256
  6
BYLAYER
  0
ACDBPLACEHOLDER
  5
F
102
{ACAD_REACTORS
330
E
102
}
330
E
100
AcDbPlaceHolder
280
     0
  0
XRECORD
  5
39
102
{ACAD_REACTORS
330
2F
102
}
330
2F
100
AcDbXrecord
 90
        0
  0
XRECORD
  5
3D
102
{ACAD_REACTORS
330
2F
102
}
330
2F
100
AcDbXrecord
1000
DSTYLE
1002
{
1070
   278
 70
    44
1002
}
  0
XRECORD
  5
3A
102
{ACAD_REACTORS
330
2F
102
}
330
2F
100
AcDbXrecord
  1
{705446A6-11D0-4548-8F8C-A97DCA50327D}
  0
XRECORD
  5
32
102
{ACAD_REACTORS
330
2F
102
}
330
2F
100
AcDbXrecord
  1

  0
XRECORD
  5
38
102
{ACAD_REACTORS
330
2F
102
}
330
2F
100
AcDbXrecord
 90
        4
  0
XRECORD
  5
34
102
{ACAD_REACTORS
330
2F
102
}
330
2F
100
AcDbXrecord
340
1A
  0
XRECORD
  5
37
102
{ACAD_REACTORS
330
2F
102
}
330
2F
100
AcDbXrecord
 90
    10781
  0
XRECORD
  5
35
102
{ACAD_REACTORS
330
2F
102
}
330
2F
100
AcDbXrecord
340
19
  0
XRECORD
  5
36
102
{ACAD_REACTORS
330
2F
102
}
330
2F
100
AcDbXrecord
340
E
  0
XRECORD
  5
3C
102
{ACAD_REACTORS
330
2F
102
}
330
2F
100
AcDbXrecord
 40
0.0
  0
XRECORD
  5
40
102
{ACAD_REACTORS
330
2F
102
}
330
2F
100
AcDbXrecord
340
0
  0
XRECORD
  5
46
102
{ACAD_REACTORS
330
2F
102
}
330
2F
100
AcDbXrecord
 10
0.0
 20
0.0
 30
0.0
  0
XRECORD
  5
42
102
{ACAD_REACTORS
330
2F
102
}
330
2F
100
AcDbXrecord
 10
0.0
 20
0.0
 30
0.0
  0
XRECORD
  5
45
102
{ACAD_REACTORS
330
2F
102
}
330
2F
100
AcDbXrecord
 10
0.0
 20
0.0
 30
0.0
  0
XRECORD
  5
43
102
{ACAD_REACTORS
330
2F
102
}
330
2F
100
AcDbXrecord
 10
0.0
 20
0.0
 30
0.0
  0
XRECORD
  5
44
102
{ACAD_REACTORS
330
2F
102
}
330
2F
100
AcDbXrecord
 10
0.0
 20
0.0
 30
0.0
  0
XRECORD
  5
41
102
{ACAD_REACTORS
330
2F
102
}
330
2F
100
AcDbXrecord
 10
0.0
 20
0.0
 30
0.0
  0
XRECORD
  5
3E
102
{ACAD_REACTORS
330
2F
102
}
330
2F
100
AcDbXrecord
340
0
  0
XRECORD
  5
3F
102
{ACAD_REACTORS
330
2F
102
}
330
2F
100
AcDbXrecord
 70
     0
  0
XRECORD
  5
33
102
{ACAD_REACTORS
330
2F
102
}
330
2F
100
AcDbXrecord
  1

  0
XRECORD
  5
30
102
{ACAD_REACTORS
330
2F
102
}
330
2F
100
AcDbXrecord
 90
        1
  0
XRECORD
  5
31
102
{ACAD_REACTORS
330
2F
102
}
330
2F
100
AcDbXrecord
 90
       70
  0
XRECORD
  5
49
102
{ACAD_REACTORS
330
2F
102
}
330
2F
100
AcDbXrecord
340
0
  0
XRECORD
  5
4F
102
{ACAD_REACTORS
330
2F
102
}
330
2F
100
AcDbXrecord
 10
0.0
 20
0.0
 30
0.0
  0
XRECORD
  5
4B
102
{ACAD_REACTORS
330
2F
102
}
330
2F
100
AcDbXrecord
 10
0.0
 20
0.0
 30
0.0
  0
XRECORD
  5
4E
102
{ACAD_REACTORS
330
2F
102
}
330
2F
100
AcDbXrecord
 10
0.0
 20
0.0
 30
0.0
  0
XRECORD
  5
4C
102
{ACAD_REACTORS
330
2F
102
}
330
2F
100
AcDbXrecord
 10
0.0
 20
0.0
 30
0.0
  0
XRECORD
  5
4D
102
{ACAD_REACTORS
330
2F
102
}
330
2F
100
AcDbXrecord
 10
0.0
 20
0.0
 30
0.0
  0
XRECORD
  5
4A
102
{ACAD_REACTORS
330
2F
102
}
330
2F
100
AcDbXrecord
 10
0.0
 20
0.0
 30
0.0
  0
XRECORD
  5
47
102
{ACAD_REACTORS
330
2F
102
}
330
2F
100
AcDbXrecord
340
0
  0
XRECORD
  5
48
102
{ACAD_REACTORS
330
2F
102
}
330
2F
100
AcDbXrecord
 70
     0
  0
XRECORD
  5
3B
102
{ACAD_REACTORS
330
2F
102
}
330
2F
100
AcDbXrecord
  1
{33328E3A-B6B8-4979-86B7-D70DEC2867C2}
  0
ENDSEC
  0
EOF
