  0
SECTION
  2
HEADER
  9
$ACADVER
  1
AC1014
  9
$EXTMIN
 10
70.16401489310567
 20
112.369642808922
 30
0.0
  9
$EXTMAX
 10
277.0834797641999
 20
227.1366601424358
 30
0.0
  9
$HANDSEED
  5
56
  9
$MEASUREMENT
 70
1
  0
ENDSEC
  0
SECTION
  2
TABLES
  0
TABLE
  2
VPORT
  5
8
330
0
100
AcDbSymbolTable
 70
     4
  0
VPORT
  5
2E
330
8
100
AcDbSymbolTableRecord
100
AcDbViewportTableRecord
  2
*ACTIVE
 70
     0
 10
0.0
 20
0.0
 11
1.0
 21
1.0
 12
209.9999999999999
 22
148.4999999999999
 13
0.0
 23
0.0
 14
10.0
 24
10.0
 15
10.0
 25
10.0
 16
0.0
 26
0.0
 36
1.0
 17
0.0
 27
0.0
 37
0.0
 40
340.9950045922664
 41
1.239944521497919
 42
50.0
 43
0.0
 44
0.0
 50
0.0
 51
0.0
 71
     0
 72
   100
 73
     1
 74
     3
 75
     0
 76
     0
 77
     0
 78
     0
  0
ENDTAB
  0
TABLE
  2
LTYPE
  5
5
330
0
100
AcDbSymbolTable
 70
     1
  0
LTYPE
  5
14
330
5
100
AcDbSymbolTableRecord
100
AcDbLinetypeTableRecord
  2
BYBLOCK
 70
     0
  3

 72
    65
 73
     0
 40
0.0
  0
LTYPE
  5
15
330
5
100
AcDbSymbolTableRecord
100
AcDbLinetypeTableRecord
  2
BYLAYER
 70
     0
  3

 72
    65
 73
     0
 40
0.0
  0
LTYPE
  5
16
330
5
100
AcDbSymbolTableRecord
100
AcDbLinetypeTableRecord
  2
CONTINUOUS
 70
     0
  3
Solid line
 72
    65
 73
     0
 40
0.0
  0
ENDTAB
  0
TABLE
  2
LAYER
  5
2
330
0
100
AcDbSymbolTable
 70
4
  0
LAYER
  5
10
330
2
100
AcDbSymbolTableRecord
100
AcDbLayerTableRecord
  2
0
 70
     0
 62
     7
  6
CONTINUOUS
  0
LAYER
  5
11e
100
AcDbSymbolTableRecord
100
AcDbLayerTableRecord
  2
C00-00-00-BLACK
 70
0
 62
7
  6
CONTINUOUS
  0
LAYER
  5
11f
100
AcDbSymbolTableRecord
100
AcDbLayerTableRecord
  2
CFF-FF-FF-WHITE
 70
0
 62
7
  6
CONTINUOUS
  0
ENDTAB
  0
TABLE
  2
STYLE
  5
3
330
0
100
AcDbSymbolTable
 70
     1
  0
STYLE
  5
11
330
3
100
AcDbSymbolTableRecord
100
AcDbTextStyleTableRecord
  2
STANDARD
 70
     0
 40
0.0
 41
1.0
 50
0.0
 71
     0
 42
2.5
  3
txt
  4

  0
ENDTAB
  0
TABLE
  2
VIEW
  5
6
330
0
100
AcDbSymbolTable
 70
     0
  0
ENDTAB
  0
TABLE
  2
UCS
  5
7
330
0
100
AcDbSymbolTable
 70
     0
  0
ENDTAB
  0
TABLE
  2
APPID
  5
9
330
0
100
AcDbSymbolTable
 70
     2
  0
APPID
  5
12
330
9
100
AcDbSymbolTableRecord
100
AcDbRegAppTableRecord
  2
ACAD
 70
     0
  0
APPID
  5
2B
330
9
100
AcDbSymbolTableRecord
100
AcDbRegAppTableRecord
  2
URBANX
 70
     0
  0
ENDTAB
  0
TABLE
  2
DIMSTYLE
  5
A
330
0
100
AcDbSymbolTable
 70
     1
  0
DIMSTYLE
105
27
330
A
100
AcDbSymbolTableRecord
100
AcDbDimStyleTableRecord
  2
ISO-25
 70
     0
  3

  4

  5

  6

  7

 40
1.0
 41
2.5
 42
0.625
 43
3.75
 44
1.25
 45
0.0
 46
0.0
 47
0.0
 48
0.0
140
2.5
141
2.5
142
0.0
143
0.03937007874016
144
1.0
145
0.0
146
1.0
147
0.625
 71
     0
 72
     0
 73
     0
 74
     0
 75
     0
 76
     0
 77
     1
 78
     8
170
     0
171
     3
172
     1
173
     0
174
     0
175
     0
176
     0
177
     0
178
     0
270
     2
271
     2
272
     2
273
     2
274
     3
340
11
275
     0
280
     0
281
     0
282
     0
283
     0
284
     8
285
     0
286
     0
287
     3
288
     0
  0
ENDTAB
  0
TABLE
  2
BLOCK_RECORD
  5
1
330
0
100
AcDbSymbolTable
 70
     1
  0
BLOCK_RECORD
  5
1F
102
{ACAD_XDICTIONARY
360
52
102
}
330
1
100
AcDbSymbolTableRecord
100
AcDbBlockTableRecord
  2
*MODEL_SPACE
  0
BLOCK_RECORD
  5
1B
102
{ACAD_XDICTIONARY
360
50
102
}
330
1
100
AcDbSymbolTableRecord
100
AcDbBlockTableRecord
  2
*PAPER_SPACE
  0
ENDTAB
  0
ENDSEC
  0
SECTION
  2
BLOCKS
  0
BLOCK
  5
20
330
1F
100
AcDbEntity
  8
0
100
AcDbBlockBegin
  2
*MODEL_SPACE
 70
     0
 10
0.0
 20
0.0
 30
0.0
  3
*MODEL_SPACE
  1

  0
ENDBLK
  5
21
330
1F
100
AcDbEntity
  8
0
100
AcDbBlockEnd
  0
BLOCK
  5
1C
330
1B
100
AcDbEntity
 67
     1
  8
0
100
AcDbBlockBegin
  2
*PAPER_SPACE
  1

  0
ENDBLK
  5
1D
330
1B
100
AcDbEntity
 67
     1
  8
0
100
AcDbBlockEnd
  0
ENDSEC
  0
SECTION
  2
ENTITIES
  0
LINE
  5
ff
100
AcDbEntity
  8
C00-00-00-BLACK
100
AcDbLine
 10
28.05
 20
10.8501
 30
0.0
 11
28.05
 21
10.8501
 31
0.0
  0
LWPOLYLINE
  5
100
100
AcDbEntity
  8
C00-00-00-BLACK
100
AcDbPolyline
 90
31
 70
 0
 10
28.05
 20
10.8501
 30
0.0
 10
28.0499
 20
10.8528
 30
0.0
 10
28.0497
 20
10.8555
 30
0.0
 10
28.0493
 20
10.8581
 30
0.0
 10
28.0488
 20
10.8607
 30
0.0
 10
28.0482
 20
10.8633
 30
0.0
 10
28.0474
 20
10.8658
 30
0.0
 10
28.0465
 20
10.8683
 30
0.0
 10
28.0455
 20
10.8706
 30
0.0
 10
28.0444
 20
10.873
 30
0.0
 10
28.0431
 20
10.8752
 30
0.0
 10
28.0418
 20
10.8774
 30
0.0
 10
28.0403
 20
10.8795
 30
0.0
 10
28.0387
 20
10.8815
 30
0.0
 10
28.0371
 20
10.8835
 30
0.0
 10
28.0353
 20
10.8853
 30
0.0
 10
28.0334
 20
10.8871
 30
0.0
 10
28.0315
 20
10.8888
 30
0.0
 10
28.0295
 20
10.8903
 30
0.0
 10
28.0274
 20
10.8918
 30
0.0
 10
28.0252
 20
10.8932
 30
0.0
 10
28.0229
 20
10.8944
 30
0.0
 10
28.0206
 20
10.8956
 30
0.0
 10
28.0182
 20
10.8966
 30
0.0
 10
28.0158
 20
10.8975
 30
0.0
 10
28.0133
 20
10.8982
 30
0.0
 10
28.0107
 20
10.8989
 30
0.0
 10
28.0081
 20
10.8994
 30
0.0
 10
28.0055
 20
10.8997
 30
0.0
 10
28.0028
 20
10.8999
 30
0.0
 10
28
 20
10.9
 30
0.0
  0
LWPOLYLINE
  5
101
100
AcDbEntity
  8
C00-00-00-BLACK
100
AcDbPolyline
 90
31
 70
 0
 10
28
 20
10.9
 30
0.0
 10
27.9973
 20
10.8999
 30
0.0
 10
27.9946
 20
10.8997
 30
0.0
 10
27.992
 20
10.8994
 30
0.0
 10
27.9894
 20
10.8989
 30
0.0
 10
27.9868
 20
10.8982
 30
0.0
 10
27.9843
 20
10.8975
 30
0.0
 10
27.9818
 20
10.8966
 30
0.0
 10
27.9794
 20
10.8956
 30
0.0
 10
27.9771
 20
10.8944
 30
0.0
 10
27.9748
 20
10.8932
 30
0.0
 10
27.9726
 20
10.8918
 30
0.0
 10
27.9705
 20
10.8903
 30
0.0
 10
27.9685
 20
10.8888
 30
0.0
 10
27.9665
 20
10.8871
 30
0.0
 10
27.9647
 20
10.8853
 30
0.0
 10
27.9629
 20
10.8835
 30
0.0
 10
27.9612
 20
10.8815
 30
0.0
 10
27.9596
 20
10.8795
 30
0.0
 10
27.9582
 20
10.8774
 30
0.0
 10
27.9568
 20
10.8752
 30
0.0
 10
27.9555
 20
10.873
 30
0.0
 10
27.9544
 20
10.8706
 30
0.0
 10
27.9534
 20
10.8683
 30
0.0
 10
27.9525
 20
10.8658
 30
0.0
 10
27.9517
 20
10.8633
 30
0.0
 10
27.9511
 20
10.8607
 30
0.0
 10
27.9506
 20
10.8581
 30
0.0
 10
27.9502
 20
10.8555
 30
0.0
 10
27.95
 20
10.8528
 30
0.0
 10
27.9499
 20
10.8501
 30
0.0
  0
LWPOLYLINE
  5
102
100
AcDbEntity
  8
C00-00-00-BLACK
100
AcDbPolyline
 90
31
 70
 0
 10
27.9499
 20
10.8501
 30
0.0
 10
27.95
 20
10.8473
 30
0.0
 10
27.9502
 20
10.8446
 30
0.0
 10
27.9506
 20
10.842
 30
0.0
 10
27.9511
 20
10.8394
 30
0.0
 10
27.9517
 20
10.8368
 30
0.0
 10
27.9525
 20
10.8343
 30
0.0
 10
27.9534
 20
10.8319
 30
0.0
 10
27.9544
 20
10.8295
 30
0.0
 10
27.9556
 20
10.8271
 30
0.0
 10
27.9568
 20
10.8249
 30
0.0
 10
27.9582
 20
10.8227
 30
0.0
 10
27.9596
 20
10.8206
 30
0.0
 10
27.9612
 20
10.8185
 30
0.0
 10
27.9629
 20
10.8166
 30
0.0
 10
27.9647
 20
10.8147
 30
0.0
 10
27.9665
 20
10.813
 30
0.0
 10
27.9685
 20
10.8113
 30
0.0
 10
27.9705
 20
10.8097
 30
0.0
 10
27.9726
 20
10.8082
 30
0.0
 10
27.9748
 20
10.8069
 30
0.0
 10
27.9771
 20
10.8056
 30
0.0
 10
27.9794
 20
10.8045
 30
0.0
 10
27.9818
 20
10.8034
 30
0.0
 10
27.9843
 20
10.8025
 30
0.0
 10
27.9868
 20
10.8018
 30
0.0
 10
27.9894
 20
10.8011
 30
0.0
 10
27.992
 20
10.8006
 30
0.0
 10
27.9946
 20
10.8003
 30
0.0
 10
27.9973
 20
10.8
 30
0.0
 10
28
 20
10.8
 30
0.0
  0
LWPOLYLINE
  5
103
100
AcDbEntity
  8
C00-00-00-BLACK
100
AcDbPolyline
 90
31
 70
 0
 10
28
 20
10.8
 30
0.0
 10
28.0028
 20
10.8
 30
0.0
 10
28.0055
 20
10.8003
 30
0.0
 10
28.0081
 20
10.8006
 30
0.0
 10
28.0107
 20
10.8011
 30
0.0
 10
28.0133
 20
10.8018
 30
0.0
 10
28.0158
 20
10.8025
 30
0.0
 10
28.0182
 20
10.8034
 30
0.0
 10
28.0206
 20
10.8045
 30
0.0
 10
28.0229
 20
10.8056
 30
0.0
 10
28.0252
 20
10.8069
 30
0.0
 10
28.0274
 20
10.8082
 30
0.0
 10
28.0295
 20
10.8097
 30
0.0
 10
28.0315
 20
10.8113
 30
0.0
 10
28.0334
 20
10.813
 30
0.0
 10
28.0353
 20
10.8147
 30
0.0
 10
28.0371
 20
10.8166
 30
0.0
 10
28.0387
 20
10.8185
 30
0.0
 10
28.0403
 20
10.8206
 30
0.0
 10
28.0418
 20
10.8227
 30
0.0
 10
28.0431
 20
10.8249
 30
0.0
 10
28.0444
 20
10.8271
 30
0.0
 10
28.0455
 20
10.8295
 30
0.0
 10
28.0465
 20
10.8319
 30
0.0
 10
28.0474
 20
10.8343
 30
0.0
 10
28.0482
 20
10.8368
 30
0.0
 10
28.0488
 20
10.8394
 30
0.0
 10
28.0493
 20
10.842
 30
0.0
 10
28.0497
 20
10.8446
 30
0.0
 10
28.0499
 20
10.8473
 30
0.0
 10
28.05
 20
10.8501
 30
0.0
  0
LINE
  5
104
100
AcDbEntity
  8
C00-00-00-BLACK
100
AcDbLine
 10
0
 20
0.999959
 30
0.0
 11
0
 21
21.7
 31
0.0
  0
LINE
  5
105
100
AcDbEntity
  8
C00-00-00-BLACK
100
AcDbLine
 10
0
 20
21.7
 30
0.0
 11
0
 21
24.3
 31
0.0
  0
LWPOLYLINE
  5
106
100
AcDbEntity
  8
C00-00-00-BLACK
100
AcDbPolyline
 90
31
 70
 0
 10
0
 20
24.3
 30
0.0
 10
0.000592416
 20
24.3219
 30
0.0
 10
0.00234926
 20
24.3436
 30
0.0
 10
0.00523991
 20
24.3648
 30
0.0
 10
0.00923377
 20
24.3858
 30
0.0
 10
0.0143002
 20
24.4063
 30
0.0
 10
0.0204086
 20
24.4264
 30
0.0
 10
0.0275284
 20
24.446
 30
0.0
 10
0.035629
 20
24.4651
 30
0.0
 10
0.0446797
 20
24.4838
 30
0.0
 10
0.05465
 20
24.5018
 30
0.0
 10
0.0655092
 20
24.5193
 30
0.0
 10
0.0772267
 20
24.5362
 30
0.0
 10
0.0897719
 20
24.5524
 30
0.0
 10
0.103114
 20
24.568
 30
0.0
 10
0.117223
 20
24.5828
 30
0.0
 10
0.132068
 20
24.5969
 30
0.0
 10
0.147618
 20
24.6102
 30
0.0
 10
0.163842
 20
24.6228
 30
0.0
 10
0.180711
 20
24.6345
 30
0.0
 10
0.198193
 20
24.6454
 30
0.0
 10
0.216258
 20
24.6553
 30
0.0
 10
0.234875
 20
24.6644
 30
0.0
 10
0.254014
 20
24.6725
 30
0.0
 10
0.273643
 20
24.6796
 30
0.0
 10
0.293733
 20
24.6857
 30
0.0
 10
0.314253
 20
24.6908
 30
0.0
 10
0.335172
 20
24.6948
 30
0.0
 10
0.35646
 20
24.6977
 30
0.0
 10
0.378085
 20
24.6994
 30
0.0
 10
0.400018
 20
24.7
 30
0.0
  0
LWPOLYLINE
  5
107
100
AcDbEntity
  8
C00-00-00-BLACK
100
AcDbPolyline
 90
31
 70
 0
 10
0.400018
 20
24.7
 30
0.0
 10
0.421951
 20
24.6994
 30
0.0
 10
0.443576
 20
24.6977
 30
0.0
 10
0.464864
 20
24.6948
 30
0.0
 10
0.485783
 20
24.6908
 30
0.0
 10
0.506302
 20
24.6857
 30
0.0
 10
0.526392
 20
24.6796
 30
0.0
 10
0.546022
 20
24.6725
 30
0.0
 10
0.56516
 20
24.6644
 30
0.0
 10
0.583777
 20
24.6553
 30
0.0
 10
0.601842
 20
24.6454
 30
0.0
 10
0.619324
 20
24.6345
 30
0.0
 10
0.636192
 20
24.6228
 30
0.0
 10
0.652417
 20
24.6102
 30
0.0
 10
0.667967
 20
24.5969
 30
0.0
 10
0.682811
 20
24.5828
 30
0.0
 10
0.69692
 20
24.568
 30
0.0
 10
0.710262
 20
24.5524
 30
0.0
 10
0.722807
 20
24.5362
 30
0.0
 10
0.734524
 20
24.5193
 30
0.0
 10
0.745384
 20
24.5018
 30
0.0
 10
0.755354
 20
24.4838
 30
0.0
 10
0.764404
 20
24.4651
 30
0.0
 10
0.772505
 20
24.446
 30
0.0
 10
0.779625
 20
24.4264
 30
0.0
 10
0.785733
 20
24.4063
 30
0.0
 10
0.790799
 20
24.3858
 30
0.0
 10
0.794793
 20
24.3648
 30
0.0
 10
0.797684
 20
24.3436
 30
0.0
 10
0.799441
 20
24.3219
 30
0.0
 10
0.800033
 20
24.3
 30
0.0
  0
LINE
  5
108
100
AcDbEntity
  8
C00-00-00-BLACK
100
AcDbLine
 10
0.800033
 20
24.3
 30
0.0
 11
0.800033
 21
22.2999
 31
0.0
  0
LWPOLYLINE
  5
109
100
AcDbEntity
  8
C00-00-00-BLACK
100
AcDbPolyline
 90
31
 70
 0
 10
0.800033
 20
22.2999
 30
0.0
 10
0.800921
 20
22.267
 30
0.0
 10
0.803555
 20
22.2345
 30
0.0
 10
0.807888
 20
22.2026
 30
0.0
 10
0.813876
 20
22.1712
 30
0.0
 10
0.821471
 20
22.1404
 30
0.0
 10
0.83063
 20
22.1103
 30
0.0
 10
0.841304
 20
22.0809
 30
0.0
 10
0.853449
 20
22.0522
 30
0.0
 10
0.867019
 20
22.0242
 30
0.0
 10
0.881968
 20
21.9971
 30
0.0
 10
0.898251
 20
21.9709
 30
0.0
 10
0.91582
 20
21.9456
 30
0.0
 10
0.934631
 20
21.9213
 30
0.0
 10
0.954638
 20
21.898
 30
0.0
 10
0.975795
 20
21.8757
 30
0.0
 10
0.998056
 20
21.8546
 30
0.0
 10
1.02138
 20
21.8346
 30
0.0
 10
1.04571
 20
21.8157
 30
0.0
 10
1.07101
 20
21.7982
 30
0.0
 10
1.09722
 20
21.7819
 30
0.0
 10
1.12432
 20
21.7669
 30
0.0
 10
1.15224
 20
21.7534
 30
0.0
 10
1.18095
 20
21.7412
 30
0.0
 10
1.21039
 20
21.7306
 30
0.0
 10
1.24053
 20
21.7214
 30
0.0
 10
1.27131
 20
21.7138
 30
0.0
 10
1.30269
 20
21.7078
 30
0.0
 10
1.33463
 20
21.7035
 30
0.0
 10
1.36707
 20
21.7008
 30
0.0
 10
1.39998
 20
21.7
 30
0.0
  0
LWPOLYLINE
  5
10a
100
AcDbEntity
  8
C00-00-00-BLACK
100
AcDbPolyline
 90
31
 70
 0
 10
1.39998
 20
21.7
 30
0.0
 10
1.43288
 20
21.7008
 30
0.0
 10
1.46533
 20
21.7035
 30
0.0
 10
1.49726
 20
21.7078
 30
0.0
 10
1.52864
 20
21.7138
 30
0.0
 10
1.55943
 20
21.7214
 30
0.0
 10
1.58956
 20
21.7306
 30
0.0
 10
1.619
 20
21.7412
 30
0.0
 10
1.64771
 20
21.7534
 30
0.0
 10
1.67563
 20
21.7669
 30
0.0
 10
1.70273
 20
21.7819
 30
0.0
 10
1.72895
 20
21.7982
 30
0.0
 10
1.75425
 20
21.8157
 30
0.0
 10
1.77858
 20
21.8346
 30
0.0
 10
1.8019
 20
21.8546
 30
0.0
 10
1.82416
 20
21.8757
 30
0.0
 10
1.84531
 20
21.898
 30
0.0
 10
1.86532
 20
21.9213
 30
0.0
 10
1.88413
 20
21.9456
 30
0.0
 10
1.9017
 20
21.9709
 30
0.0
 10
1.91798
 20
21.9971
 30
0.0
 10
1.93293
 20
22.0242
 30
0.0
 10
1.9465
 20
22.0522
 30
0.0
 10
1.95865
 20
22.0809
 30
0.0
 10
1.96932
 20
22.1103
 30
0.0
 10
1.97848
 20
22.1404
 30
0.0
 10
1.98608
 20
22.1712
 30
0.0
 10
1.99206
 20
22.2026
 30
0.0
 10
1.9964
 20
22.2345
 30
0.0
 10
1.99903
 20
22.267
 30
0.0
 10
1.99992
 20
22.2999
 30
0.0
  0
LINE
  5
10b
100
AcDbEntity
  8
C00-00-00-BLACK
100
AcDbLine
 10
1.99992
 20
22.2999
 30
0.0
 11
1.99992
 21
24.4999
 31
0.0
  0
LWPOLYLINE
  5
10c
100
AcDbEntity
  8
C00-00-00-BLACK
100
AcDbPolyline
 90
31
 70
 0
 10
1.99992
 20
24.4999
 30
0.0
 10
2.00051
 20
24.5219
 30
0.0
 10
2.00227
 20
24.5435
 30
0.0
 10
2.00516
 20
24.5648
 30
0.0
 10
2.00915
 20
24.5857
 30
0.0
 10
2.01422
 20
24.6062
 30
0.0
 10
2.02033
 20
24.6263
 30
0.0
 10
2.02745
 20
24.6459
 30
0.0
 10
2.03555
 20
24.6651
 30
0.0
 10
2.0446
 20
24.6837
 30
0.0
 10
2.05457
 20
24.7017
 30
0.0
 10
2.06543
 20
24.7192
 30
0.0
 10
2.07715
 20
24.7361
 30
0.0
 10
2.08969
 20
24.7523
 30
0.0
 10
2.10303
 20
24.7679
 30
0.0
 10
2.11714
 20
24.7827
 30
0.0
 10
2.13199
 20
24.7968
 30
0.0
 10
2.14754
 20
24.8102
 30
0.0
 10
2.16376
 20
24.8227
 30
0.0
 10
2.18063
 20
24.8344
 30
0.0
 10
2.19811
 20
24.8453
 30
0.0
 10
2.21618
 20
24.8553
 30
0.0
 10
2.23479
 20
24.8643
 30
0.0
 10
2.25393
 20
24.8724
 30
0.0
 10
2.27356
 20
24.8795
 30
0.0
 10
2.29365
 20
24.8856
 30
0.0
 10
2.31417
 20
24.8907
 30
0.0
 10
2.33509
 20
24.8947
 30
0.0
 10
2.35638
 20
24.8976
 30
0.0
 10
2.378
 20
24.8993
 30
0.0
 10
2.39994
 20
24.8999
 30
0.0
  0
LWPOLYLINE
  5
10d
100
AcDbEntity
  8
C00-00-00-BLACK
100
AcDbPolyline
 90
31
 70
 0
 10
2.39994
 20
24.8999
 30
0.0
 10
2.42187
 20
24.8993
 30
0.0
 10
2.44349
 20
24.8976
 30
0.0
 10
2.46478
 20
24.8947
 30
0.0
 10
2.4857
 20
24.8907
 30
0.0
 10
2.50622
 20
24.8856
 30
0.0
 10
2.52631
 20
24.8795
 30
0.0
 10
2.54594
 20
24.8724
 30
0.0
 10
2.56508
 20
24.8643
 30
0.0
 10
2.5837
 20
24.8553
 30
0.0
 10
2.60176
 20
24.8453
 30
0.0
 10
2.61924
 20
24.8344
 30
0.0
 10
2.63611
 20
24.8227
 30
0.0
 10
2.65234
 20
24.8102
 30
0.0
 10
2.66789
 20
24.7968
 30
0.0
 10
2.68273
 20
24.7827
 30
0.0
 10
2.69684
 20
24.7679
 30
0.0
 10
2.71018
 20
24.7523
 30
0.0
 10
2.72273
 20
24.7361
 30
0.0
 10
2.73444
 20
24.7192
 30
0.0
 10
2.7453
 20
24.7017
 30
0.0
 10
2.75528
 20
24.6837
 30
0.0
 10
2.76433
 20
24.6651
 30
0.0
 10
2.77243
 20
24.6459
 30
0.0
 10
2.77955
 20
24.6263
 30
0.0
 10
2.78565
 20
24.6062
 30
0.0
 10
2.79072
 20
24.5857
 30
0.0
 10
2.79471
 20
24.5648
 30
0.0
 10
2.79761
 20
24.5435
 30
0.0
 10
2.79936
 20
24.5219
 30
0.0
 10
2.79995
 20
24.4999
 30
0.0
  0
LINE
  5
10e
100
AcDbEntity
  8
C00-00-00-BLACK
100
AcDbLine
 10
2.79995
 20
24.4999
 30
0.0
 11
2.79995
 21
22.2999
 31
0.0
  0
LWPOLYLINE
  5
10f
100
AcDbEntity
  8
C00-00-00-BLACK
100
AcDbPolyline
 90
31
 70
 0
 10
2.79995
 20
22.2999
 30
0.0
 10
2.80084
 20
22.267
 30
0.0
 10
2.80348
 20
22.2345
 30
0.0
 10
2.80781
 20
22.2026
 30
0.0
 10
2.81381
 20
22.1712
 30
0.0
 10
2.82141
 20
22.1404
 30
0.0
 10
2.83057
 20
22.1103
 30
0.0
 10
2.84125
 20
22.0809
 30
0.0
 10
2.8534
 20
22.0522
 30
0.0
 10
2.86698
 20
22.0242
 30
0.0
 10
2.88193
 20
21.9971
 30
0.0
 10
2.89822
 20
21.9709
 30
0.0
 10
2.9158
 20
21.9456
 30
0.0
 10
2.93462
 20
21.9213
 30
0.0
 10
2.95463
 20
21.898
 30
0.0
 10
2.9758
 20
21.8757
 30
0.0
 10
2.99807
 20
21.8546
 30
0.0
 10
3.02139
 20
21.8346
 30
0.0
 10
3.04573
 20
21.8157
 30
0.0
 10
3.07104
 20
21.7982
 30
0.0
 10
3.09727
 20
21.7819
 30
0.0
 10
3.12437
 20
21.7669
 30
0.0
 10
3.1523
 20
21.7534
 30
0.0
 10
3.18101
 20
21.7412
 30
0.0
 10
3.21046
 20
21.7306
 30
0.0
 10
3.2406
 20
21.7214
 30
0.0
 10
3.27139
 20
21.7138
 30
0.0
 10
3.30277
 20
21.7078
 30
0.0
 10
3.33471
 20
21.7035
 30
0.0
 10
3.36715
 20
21.7008
 30
0.0
 10
3.40006
 20
21.7
 30
0.0
  0
LWPOLYLINE
  5
110
100
AcDbEntity
  8
C00-00-00-BLACK
100
AcDbPolyline
 90
31
 70
 0
 10
3.40006
 20
21.7
 30
0.0
 10
3.43297
 20
21.7008
 30
0.0
 10
3.46541
 20
21.7035
 30
0.0
 10
3.49735
 20
21.7078
 30
0.0
 10
3.52873
 20
21.7138
 30
0.0
 10
3.55951
 20
21.7214
 30
0.0
 10
3.58965
 20
21.7306
 30
0.0
 10
3.61909
 20
21.7412
 30
0.0
 10
3.6478
 20
21.7534
 30
0.0
 10
3.67572
 20
21.7669
 30
0.0
 10
3.70282
 20
21.7819
 30
0.0
 10
3.72904
 20
21.7982
 30
0.0
 10
3.75434
 20
21.8157
 30
0.0
 10
3.77867
 20
21.8346
 30
0.0
 10
3.80199
 20
21.8546
 30
0.0
 10
3.82425
 20
21.8757
 30
0.0
 10
3.8454
 20
21.898
 30
0.0
 10
3.86541
 20
21.9213
 30
0.0
 10
3.88422
 20
21.9456
 30
0.0
 10
3.90179
 20
21.9709
 30
0.0
 10
3.91807
 20
21.9971
 30
0.0
 10
3.93302
 20
22.0242
 30
0.0
 10
3.94659
 20
22.0522
 30
0.0
 10
3.95874
 20
22.0809
 30
0.0
 10
3.96941
 20
22.1103
 30
0.0
 10
3.97857
 20
22.1404
 30
0.0
 10
3.98616
 20
22.1712
 30
0.0
 10
3.99215
 20
22.2026
 30
0.0
 10
3.99648
 20
22.2345
 30
0.0
 10
3.99912
 20
22.267
 30
0.0
 10
4.00001
 20
22.2999
 30
0.0
  0
LINE
  5
111
100
AcDbEntity
  8
C00-00-00-BLACK
100
AcDbLine
 10
4.00001
 20
22.2999
 30
0.0
 11
4.00001
 21
24.7
 31
0.0
  0
LWPOLYLINE
  5
112
100
AcDbEntity
  8
C00-00-00-BLACK
100
AcDbPolyline
 90
31
 70
 0
 10
4.00001
 20
24.7
 30
0.0
 10
4.0006
 20
24.7219
 30
0.0
 10
4.00236
 20
24.7436
 30
0.0
 10
4.00525
 20
24.7649
 30
0.0
 10
4.00924
 20
24.7858
 30
0.0
 10
4.01431
 20
24.8063
 30
0.0
 10
4.02041
 20
24.8264
 30
0.0
 10
4.02753
 20
24.846
 30
0.0
 10
4.03563
 20
24.8652
 30
0.0
 10
4.04468
 20
24.8838
 30
0.0
 10
4.05465
 20
24.9018
 30
0.0
 10
4.06551
 20
24.9193
 30
0.0
 10
4.07723
 20
24.9362
 30
0.0
 10
4.08977
 20
24.9524
 30
0.0
 10
4.10312
 20
24.968
 30
0.0
 10
4.11723
 20
24.9828
 30
0.0
 10
4.13207
 20
24.9969
 30
0.0
 10
4.14762
 20
25.0103
 30
0.0
 10
4.16384
 20
25.0228
 30
0.0
 10
4.18071
 20
25.0345
 30
0.0
 10
4.19819
 20
25.0454
 30
0.0
 10
4.21626
 20
25.0554
 30
0.0
 10
4.23488
 20
25.0644
 30
0.0
 10
4.25401
 20
25.0725
 30
0.0
 10
4.27364
 20
25.0796
 30
0.0
 10
4.29373
 20
25.0857
 30
0.0
 10
4.31425
 20
25.0908
 30
0.0
 10
4.33517
 20
25.0948
 30
0.0
 10
4.35646
 20
25.0977
 30
0.0
 10
4.37809
 20
25.0994
 30
0.0
 10
4.40002
 20
25.1
 30
0.0
  0
LWPOLYLINE
  5
113
100
AcDbEntity
  8
C00-00-00-BLACK
100
AcDbPolyline
 90
31
 70
 0
 10
4.40002
 20
25.1
 30
0.0
 10
4.42195
 20
25.0994
 30
0.0
 10
4.44358
 20
25.0977
 30
0.0
 10
4.46487
 20
25.0948
 30
0.0
 10
4.48579
 20
25.0908
 30
0.0
 10
4.50631
 20
25.0857
 30
0.0
 10
4.5264
 20
25.0796
 30
0.0
 10
4.54603
 20
25.0725
 30
0.0
 10
4.56517
 20
25.0644
 30
0.0
 10
4.58378
 20
25.0554
 30
0.0
 10
4.60185
 20
25.0454
 30
0.0
 10
4.61933
 20
25.0345
 30
0.0
 10
4.6362
 20
25.0228
 30
0.0
 10
4.65242
 20
25.0103
 30
0.0
 10
4.66797
 20
24.9969
 30
0.0
 10
4.68282
 20
24.9828
 30
0.0
 10
4.69692
 20
24.968
 30
0.0
 10
4.71027
 20
24.9524
 30
0.0
 10
4.72281
 20
24.9362
 30
0.0
 10
4.73453
 20
24.9193
 30
0.0
 10
4.74539
 20
24.9018
 30
0.0
 10
4.75536
 20
24.8838
 30
0.0
 10
4.76441
 20
24.8652
 30
0.0
 10
4.77251
 20
24.846
 30
0.0
 10
4.77963
 20
24.8264
 30
0.0
 10
4.78574
 20
24.8063
 30
0.0
 10
4.7908
 20
24.7858
 30
0.0
 10
4.7948
 20
24.7649
 30
0.0
 10
4.79769
 20
24.7436
 30
0.0
 10
4.79944
 20
24.722
 30
0.0
 10
4.80004
 20
24.7
 30
0.0
  0
LINE
  5
114
100
AcDbEntity
  8
C00-00-00-BLACK
100
AcDbLine
 10
4.80004
 20
24.7
 30
0.0
 11
4.80004
 21
22.2999
 31
0.0
  0
LWPOLYLINE
  5
115
100
AcDbEntity
  8
C00-00-00-BLACK
100
AcDbPolyline
 90
31
 70
 0
 10
4.80004
 20
22.2999
 30
0.0
 10
4.80092
 20
22.267
 30
0.0
 10
4.80356
 20
22.2345
 30
0.0
 10
4.80789
 20
22.2026
 30
0.0
 10
4.81388
 20
22.1712
 30
0.0
 10
4.82147
 20
22.1404
 30
0.0
 10
4.83063
 20
22.1103
 30
0.0
 10
4.8413
 20
22.0809
 30
0.0
 10
4.85345
 20
22.0522
 30
0.0
 10
4.86702
 20
22.0242
 30
0.0
 10
4.88197
 20
21.9971
 30
0.0
 10
4.89825
 20
21.9709
 30
0.0
 10
4.91582
 20
21.9456
 30
0.0
 10
4.93463
 20
21.9213
 30
0.0
 10
4.95464
 20
21.898
 30
0.0
 10
4.97579
 20
21.8757
 30
0.0
 10
4.99805
 20
21.8546
 30
0.0
 10
5.02137
 20
21.8346
 30
0.0
 10
5.0457
 20
21.8157
 30
0.0
 10
5.071
 20
21.7982
 30
0.0
 10
5.09722
 20
21.7819
 30
0.0
 10
5.12431
 20
21.7669
 30
0.0
 10
5.15224
 20
21.7534
 30
0.0
 10
5.18094
 20
21.7412
 30
0.0
 10
5.21039
 20
21.7306
 30
0.0
 10
5.24052
 20
21.7214
 30
0.0
 10
5.2713
 20
21.7138
 30
0.0
 10
5.30268
 20
21.7078
 30
0.0
 10
5.33462
 20
21.7035
 30
0.0
 10
5.36706
 20
21.7008
 30
0.0
 10
5.39997
 20
21.7
 30
0.0
  0
LINE
  5
116
100
AcDbEntity
  8
C00-00-00-BLACK
100
AcDbLine
 10
5.39997
 20
21.7
 30
0.0
 11
22.225
 21
21.7
 31
0.0
  0
LWPOLYLINE
  5
117
100
AcDbEntity
  8
C00-00-00-BLACK
100
AcDbPolyline
 90
31
 70
 0
 10
22.225
 20
21.7
 30
0.0
 10
22.4121
 20
21.6718
 30
0.0
 10
22.5751
 20
21.5898
 30
0.0
 10
22.7168
 20
21.4578
 30
0.0
 10
22.8396
 20
21.2796
 30
0.0
 10
22.9462
 20
21.0592
 30
0.0
 10
23.0392
 20
20.8004
 30
0.0
 10
23.1212
 20
20.5069
 30
0.0
 10
23.1949
 20
20.1827
 30
0.0
 10
23.2629
 20
19.8316
 30
0.0
 10
23.3277
 20
19.4574
 30
0.0
 10
23.3921
 20
19.0639
 30
0.0
 10
23.4586
 20
18.6551
 30
0.0
 10
23.5298
 20
18.2348
 30
0.0
 10
23.6083
 20
17.8068
 30
0.0
 10
23.6969
 20
17.3749
 30
0.0
 10
23.798
 20
16.9431
 30
0.0
 10
23.9143
 20
16.5151
 30
0.0
 10
24.0484
 20
16.0947
 30
0.0
 10
24.2029
 20
15.6859
 30
0.0
 10
24.3806
 20
15.2925
 30
0.0
 10
24.5838
 20
14.9183
 30
0.0
 10
24.8154
 20
14.5672
 30
0.0
 10
25.0778
 20
14.243
 30
0.0
 10
25.3738
 20
13.9495
 30
0.0
 10
25.7059
 20
13.6907
 30
0.0
 10
26.0768
 20
13.4702
 30
0.0
 10
26.489
 20
13.2921
 30
0.0
 10
26.9452
 20
13.1601
 30
0.0
 10
27.448
 20
13.0781
 30
0.0
 10
28
 20
13.0499
 30
0.0
  0
LINE
  5
118
100
AcDbEntity
  8
C00-00-00-BLACK
100
AcDbLine
 10
28
 20
13.0499
 30
0.0
 11
28
 21
13.0499
 31
0.0
  0
LWPOLYLINE
  5
119
100
AcDbEntity
  8
C00-00-00-BLACK
100
AcDbPolyline
 90
31
 70
 0
 10
28
 20
13.0499
 30
0.0
 10
28.1207
 20
13.0467
 30
0.0
 10
28.2397
 20
13.037
 30
0.0
 10
28.3569
 20
13.0211
 30
0.0
 10
28.472
 20
12.9992
 30
0.0
 10
28.5849
 20
12.9713
 30
0.0
 10
28.6954
 20
12.9378
 30
0.0
 10
28.8034
 20
12.8986
 30
0.0
 10
28.9086
 20
12.8541
 30
0.0
 10
29.011
 20
12.8044
 30
0.0
 10
29.1104
 20
12.7496
 30
0.0
 10
29.2065
 20
12.6899
 30
0.0
 10
29.2993
 20
12.6255
 30
0.0
 10
29.3885
 20
12.5565
 30
0.0
 10
29.474
 20
12.4832
 30
0.0
 10
29.5556
 20
12.4056
 30
0.0
 10
29.6332
 20
12.324
 30
0.0
 10
29.7066
 20
12.2385
 30
0.0
 10
29.7755
 20
12.1493
 30
0.0
 10
29.84
 20
12.0565
 30
0.0
 10
29.8997
 20
11.9604
 30
0.0
 10
29.9545
 20
11.861
 30
0.0
 10
30.0042
 20
11.7586
 30
0.0
 10
30.0487
 20
11.6534
 30
0.0
 10
30.0879
 20
11.5454
 30
0.0
 10
30.1214
 20
11.4349
 30
0.0
 10
30.1493
 20
11.322
 30
0.0
 10
30.1712
 20
11.2069
 30
0.0
 10
30.1871
 20
11.0898
 30
0.0
 10
30.1968
 20
10.9708
 30
0.0
 10
30.2
 20
10.8501
 30
0.0
  0
LWPOLYLINE
  5
11a
100
AcDbEntity
  8
C00-00-00-BLACK
100
AcDbPolyline
 90
31
 70
 0
 10
30.2
 20
10.8501
 30
0.0
 10
30.1968
 20
10.7294
 30
0.0
 10
30.1871
 20
10.6104
 30
0.0
 10
30.1712
 20
10.4932
 30
0.0
 10
30.1493
 20
10.3781
 30
0.0
 10
30.1214
 20
10.2653
 30
0.0
 10
30.0879
 20
10.1547
 30
0.0
 10
30.0487
 20
10.0468
 30
0.0
 10
30.0042
 20
9.94148
 30
0.0
 10
29.9545
 20
9.83908
 30
0.0
 10
29.8997
 20
9.73972
 30
0.0
 10
29.84
 20
9.64358
 30
0.0
 10
29.7755
 20
9.55081
 30
0.0
 10
29.7066
 20
9.46159
 30
0.0
 10
29.6332
 20
9.37608
 30
0.0
 10
29.5556
 20
9.29446
 30
0.0
 10
29.474
 20
9.21688
 30
0.0
 10
29.3885
 20
9.14352
 30
0.0
 10
29.2993
 20
9.07455
 30
0.0
 10
29.2065
 20
9.01013
 30
0.0
 10
29.1104
 20
8.95043
 30
0.0
 10
29.011
 20
8.89562
 30
0.0
 10
28.9086
 20
8.84587
 30
0.0
 10
28.8034
 20
8.80135
 30
0.0
 10
28.6954
 20
8.76221
 30
0.0
 10
28.5849
 20
8.72864
 30
0.0
 10
28.472
 20
8.70079
 30
0.0
 10
28.3569
 20
8.67884
 30
0.0
 10
28.2397
 20
8.66295
 30
0.0
 10
28.1207
 20
8.6533
 30
0.0
 10
28
 20
8.65004
 30
0.0
  0
LWPOLYLINE
  5
11b
100
AcDbEntity
  8
C00-00-00-BLACK
100
AcDbPolyline
 90
31
 70
 0
 10
28
 20
8.65004
 30
0.0
 10
27.448
 20
8.62185
 30
0.0
 10
26.9452
 20
8.53983
 30
0.0
 10
26.489
 20
8.40784
 30
0.0
 10
26.0768
 20
8.22971
 30
0.0
 10
25.7059
 20
8.0093
 30
0.0
 10
25.3738
 20
7.75044
 30
0.0
 10
25.0778
 20
7.45698
 30
0.0
 10
24.8154
 20
7.13276
 30
0.0
 10
24.5838
 20
6.78163
 30
0.0
 10
24.3806
 20
6.40744
 30
0.0
 10
24.2029
 20
6.01402
 30
0.0
 10
24.0484
 20
5.60523
 30
0.0
 10
23.9143
 20
5.1849
 30
0.0
 10
23.798
 20
4.75688
 30
0.0
 10
23.6969
 20
4.32502
 30
0.0
 10
23.6083
 20
3.89316
 30
0.0
 10
23.5298
 20
3.46514
 30
0.0
 10
23.4586
 20
3.04481
 30
0.0
 10
23.3921
 20
2.63602
 30
0.0
 10
23.3277
 20
2.2426
 30
0.0
 10
23.2629
 20
1.86841
 30
0.0
 10
23.1949
 20
1.51728
 30
0.0
 10
23.1212
 20
1.19307
 30
0.0
 10
23.0392
 20
0.899604
 30
0.0
 10
22.9462
 20
0.640744
 30
0.0
 10
22.8396
 20
0.420328
 30
0.0
 10
22.7168
 20
0.242201
 30
0.0
 10
22.5751
 20
0.110208
 30
0.0
 10
22.4121
 20
0.0281928
 30
0.0
 10
22.225
 20
0
 30
0.0
  0
LINE
  5
11c
100
AcDbEntity
  8
C00-00-00-BLACK
100
AcDbLine
 10
22.225
 20
0
 30
0.0
 11
0.999959
 21
0
 31
0.0
  0
LWPOLYLINE
  5
11d
100
AcDbEntity
  8
C00-00-00-BLACK
100
AcDbPolyline
 90
31
 70
 0
 10
0.999959
 20
0
 30
0.0
 10
0.945105
 20
0.00147998
 30
0.0
 10
0.891022
 20
0.00586902
 30
0.0
 10
0.837788
 20
0.0130908
 30
0.0
 10
0.785478
 20
0.023069
 30
0.0
 10
0.734169
 20
0.0357273
 30
0.0
 10
0.683938
 20
0.0509893
 30
0.0
 10
0.63486
 20
0.0687788
 30
0.0
 10
0.587012
 20
0.0890194
 30
0.0
 10
0.54047
 20
0.111635
 30
0.0
 10
0.49531
 20
0.136549
 30
0.0
 10
0.45161
 20
0.163685
 30
0.0
 10
0.409445
 20
0.192966
 30
0.0
 10
0.368891
 20
0.224318
 30
0.0
 10
0.330025
 20
0.257662
 30
0.0
 10
0.292923
 20
0.292923
 30
0.0
 10
0.257662
 20
0.330025
 30
0.0
 10
0.224318
 20
0.368891
 30
0.0
 10
0.192966
 20
0.409445
 30
0.0
 10
0.163685
 20
0.45161
 30
0.0
 10
0.136549
 20
0.49531
 30
0.0
 10
0.111635
 20
0.54047
 30
0.0
 10
0.0890194
 20
0.587012
 30
0.0
 10
0.0687788
 20
0.63486
 30
0.0
 10
0.0509893
 20
0.683938
 30
0.0
 10
0.0357273
 20
0.734169
 30
0.0
 10
0.023069
 20
0.785478
 30
0.0
 10
0.0130908
 20
0.837788
 30
0.0
 10
0.00586902
 20
0.891022
 30
0.0
 10
0.00147998
 20
0.945105
 30
0.0
 10
0
 20
0.999959
 30
0.0
  0
ENDSEC
  0
SECTION
  2
OBJECTS
  0
DICTIONARY
  5
C
330
0
100
AcDbDictionary
  3
ACAD_GROUP
350
D
  3
ACAD_LAYOUT
350
1A
  3
ACAD_MLINESTYLE
350
17
  3
ACAD_PLOTSETTINGS
350
19
  3
ACAD_PLOTSTYLENAME
350
E
  3
ACDBHEADERROUNDTRIPXREC
350
2F
  0
DICTIONARY
  5
52
330
1F
100
AcDbDictionary
280
     1
  3
ACAD_LAYOUTSELFREF
360
53
  0
DICTIONARY
  5
50
330
1B
100
AcDbDictionary
280
     1
  3
ACAD_LAYOUTSELFREF
360
51
  0
DICTIONARY
  5
D
102
{ACAD_REACTORS
330
C
102
}
330
C
100
AcDbDictionary
  0
DICTIONARY
  5
1A
102
{ACAD_REACTORS
330
C
102
}
330
C
100
AcDbDictionary
  0
DICTIONARY
  5
17
102
{ACAD_REACTORS
330
C
102
}
330
C
100
AcDbDictionary
  3
STANDARD
350
18
  0
DICTIONARY
  5
19
102
{ACAD_REACTORS
330
C
102
}
330
C
100
AcDbDictionary
  0
ACDBDICTIONARYWDFLT
  5
E
102
{ACAD_REACTORS
330
C
102
}
330
C
100
AcDbDictionary
281
     1
  3
Normal
350
F
100
AcDbDictionaryWithDefault
340
F
  0
DICTIONARY
  5
2F
102
{ACAD_REACTORS
330
C
102
}
330
C
100
AcDbDictionary
  3
CEPSNTYPE
350
39
  3
DIMSTYLEDATA
350
3D
  3
FINGERPRINTGUID
350
3A
  3
HYPERLINKBASE
350
32
  3
INSUNITS
350
38
  3
LAYOUTDICT
350
34
  3
LWETCUNION
350
37
  3
PLOTSETDICT
350
35
  3
PLOTSTYLNAMDICT
350
36
  3
PSVPSCALE
350
3C
  3
PUCSBASE
350
40
  3
PUCSORGBACK
350
46
  3
PUCSORGBOTTOM
350
42
  3
PUCSORGFRONT
350
45
  3
PUCSORGLEFT
350
43
  3
PUCSORGRIGHT
350
44
  3
PUCSORGTOP
350
41
  3
PUCSORTHOREF
350
3E
  3
PUCSORTHOVIEW
350
3F
  3
STYLESHEET
350
33
  3
TSTACKALIGN
350
30
  3
TSTACKSIZE
350
31
  3
UCSBASE
350
49
  3
UCSORGBACK
350
4F
  3
UCSORGBOTTOM
350
4B
  3
UCSORGFRONT
350
4E
  3
UCSORGLEFT
350
4C
  3
UCSORGRIGHT
350
4D
  3
UCSORGTOP
350
4A
  3
UCSORTHOREF
350
47
  3
UCSORTHOVIEW
350
48
  3
VERSIONGUID
350
3B
  0
XRECORD
  5
53
102
{ACAD_REACTORS
330
52
102
}
330
52
100
AcDbXrecord
340
1F
  0
XRECORD
  5
51
102
{ACAD_REACTORS
330
50
102
}
330
50
100
AcDbXrecord
340
1B
  0
MLINESTYLE
  5
18
102
{ACAD_REACTORS
330
17
102
}
330
17
100
AcDbMlineStyle
  2
STANDARD
 70
     0
  3

 62
   256
 51
90.0
 52
90.0
 71
     2
 49
0.5
 62
   256
  6
BYLAYER
 49
-0.5
 62
   256
  6
BYLAYER
  0
ACDBPLACEHOLDER
  5
F
102
{ACAD_REACTORS
330
E
102
}
330
E
100
AcDbPlaceHolder
280
     0
  0
XRECORD
  5
39
102
{ACAD_REACTORS
330
2F
102
}
330
2F
100
AcDbXrecord
 90
        0
  0
XRECORD
  5
3D
102
{ACAD_REACTORS
330
2F
102
}
330
2F
100
AcDbXrecord
1000
DSTYLE
1002
{
1070
   278
 70
    44
1002
}
  0
XRECORD
  5
3A
102
{ACAD_REACTORS
330
2F
102
}
330
2F
100
AcDbXrecord
  1
{705446A6-11D0-4548-8F8C-A97DCA50327D}
  0
XRECORD
  5
32
102
{ACAD_REACTORS
330
2F
102
}
330
2F
100
AcDbXrecord
  1

  0
XRECORD
  5
38
102
{ACAD_REACTORS
330
2F
102
}
330
2F
100
AcDbXrecord
 90
        4
  0
XRECORD
  5
34
102
{ACAD_REACTORS
330
2F
102
}
330
2F
100
AcDbXrecord
340
1A
  0
XRECORD
  5
37
102
{ACAD_REACTORS
330
2F
102
}
330
2F
100
AcDbXrecord
 90
    10781
  0
XRECORD
  5
35
102
{ACAD_REACTORS
330
2F
102
}
330
2F
100
AcDbXrecord
340
19
  0
XRECORD
  5
36
102
{ACAD_REACTORS
330
2F
102
}
330
2F
100
AcDbXrecord
340
E
  0
XRECORD
  5
3C
102
{ACAD_REACTORS
330
2F
102
}
330
2F
100
AcDbXrecord
 40
0.0
  0
XRECORD
  5
40
102
{ACAD_REACTORS
330
2F
102
}
330
2F
100
AcDbXrecord
340
0
  0
XRECORD
  5
46
102
{ACAD_REACTORS
330
2F
102
}
330
2F
100
AcDbXrecord
 10
0.0
 20
0.0
 30
0.0
  0
XRECORD
  5
42
102
{ACAD_REACTORS
330
2F
102
}
330
2F
100
AcDbXrecord
 10
0.0
 20
0.0
 30
0.0
  0
XRECORD
  5
45
102
{ACAD_REACTORS
330
2F
102
}
330
2F
100
AcDbXrecord
 10
0.0
 20
0.0
 30
0.0
  0
XRECORD
  5
43
102
{ACAD_REACTORS
330
2F
102
}
330
2F
100
AcDbXrecord
 10
0.0
 20
0.0
 30
0.0
  0
XRECORD
  5
44
102
{ACAD_REACTORS
330
2F
102
}
330
2F
100
AcDbXrecord
 10
0.0
 20
0.0
 30
0.0
  0
XRECORD
  5
41
102
{ACAD_REACTORS
330
2F
102
}
330
2F
100
AcDbXrecord
 10
0.0
 20
0.0
 30
0.0
  0
XRECORD
  5
3E
102
{ACAD_REACTORS
330
2F
102
}
330
2F
100
AcDbXrecord
340
0
  0
XRECORD
  5
3F
102
{ACAD_REACTORS
330
2F
102
}
330
2F
100
AcDbXrecord
 70
     0
  0
XRECORD
  5
33
102
{ACAD_REACTORS
330
2F
102
}
330
2F
100
AcDbXrecord
  1

  0
XRECORD
  5
30
102
{ACAD_REACTORS
330
2F
102
}
330
2F
100
AcDbXrecord
 90
        1
  0
XRECORD
  5
31
102
{ACAD_REACTORS
330
2F
102
}
330
2F
100
AcDbXrecord
 90
       70
  0
XRECORD
  5
49
102
{ACAD_REACTORS
330
2F
102
}
330
2F
100
AcDbXrecord
340
0
  0
XRECORD
  5
4F
102
{ACAD_REACTORS
330
2F
102
}
330
2F
100
AcDbXrecord
 10
0.0
 20
0.0
 30
0.0
  0
XRECORD
  5
4B
102
{ACAD_REACTORS
330
2F
102
}
330
2F
100
AcDbXrecord
 10
0.0
 20
0.0
 30
0.0
  0
XRECORD
  5
4E
102
{ACAD_REACTORS
330
2F
102
}
330
2F
100
AcDbXrecord
 10
0.0
 20
0.0
 30
0.0
  0
XRECORD
  5
4C
102
{ACAD_REACTORS
330
2F
102
}
330
2F
100
AcDbXrecord
 10
0.0
 20
0.0
 30
0.0
  0
XRECORD
  5
4D
102
{ACAD_REACTORS
330
2F
102
}
330
2F
100
AcDbXrecord
 10
0.0
 20
0.0
 30
0.0
  0
XRECORD
  5
4A
102
{ACAD_REACTORS
330
2F
102
}
330
2F
100
AcDbXrecord
 10
0.0
 20
0.0
 30
0.0
  0
XRECORD
  5
47
102
{ACAD_REACTORS
330
2F
102
}
330
2F
100
AcDbXrecord
340
0
  0
XRECORD
  5
48
102
{ACAD_REACTORS
330
2F
102
}
330
2F
100
AcDbXrecord
 70
     0
  0
XRECORD
  5
3B
102
{ACAD_REACTORS
330
2F
102
}
330
2F
100
AcDbXrecord
  1
{33328E3A-B6B8-4979-86B7-D70DEC2867C2}
  0
ENDSEC
  0
EOF
